<?xml version="1.0" encoding="utf-8"?>
<!-- Generator: Adobe Illustrator 16.0.4, SVG Export Plug-In . SVG Version: 6.00 Build 0)  -->
<!DOCTYPE svg PUBLIC "-//W3C//DTD SVG 1.1//EN" "http://www.w3.org/Graphics/SVG/1.1/DTD/svg11.dtd" [
	<!ENTITY ns_extend "http://ns.adobe.com/Extensibility/1.0/">
	<!ENTITY ns_ai "http://ns.adobe.com/AdobeIllustrator/10.0/">
	<!ENTITY ns_graphs "http://ns.adobe.com/Graphs/1.0/">
	<!ENTITY ns_vars "http://ns.adobe.com/Variables/1.0/">
	<!ENTITY ns_imrep "http://ns.adobe.com/ImageReplacement/1.0/">
	<!ENTITY ns_sfw "http://ns.adobe.com/SaveForWeb/1.0/">
	<!ENTITY ns_custom "http://ns.adobe.com/GenericCustomNamespace/1.0/">
	<!ENTITY ns_adobe_xpath "http://ns.adobe.com/XPath/1.0/">
]>
<svg version="1.1" id="Layer_1" xmlns:x="&ns_extend;" xmlns:i="&ns_ai;" xmlns:graph="&ns_graphs;"
	 xmlns="http://www.w3.org/2000/svg" xmlns:xlink="http://www.w3.org/1999/xlink" x="0px" y="0px" width="50px" height="50px"
	 viewBox="0 0 50 50" enable-background="new 0 0 50 50" xml:space="preserve">
<metadata><?xpacket begin="﻿" id="W5M0MpCehiHzreSzNTczkc9d"?>
<x:xmpmeta xmlns:x="adobe:ns:meta/" x:xmptk="Adobe XMP Core 5.3-c011 66.145661, 2012/02/06-14:56:27        ">
   <rdf:RDF xmlns:rdf="http://www.w3.org/1999/02/22-rdf-syntax-ns#">
      <rdf:Description rdf:about=""
            xmlns:dc="http://purl.org/dc/elements/1.1/">
         <dc:format>image/svg+xml</dc:format>
         <dc:title>
            <rdf:Alt>
               <rdf:li xml:lang="x-default">Web</rdf:li>
            </rdf:Alt>
         </dc:title>
      </rdf:Description>
      <rdf:Description rdf:about=""
            xmlns:xmp="http://ns.adobe.com/xap/1.0/"
            xmlns:xmpGImg="http://ns.adobe.com/xap/1.0/g/img/">
         <xmp:CreatorTool>Adobe Illustrator CS6 (Macintosh)</xmp:CreatorTool>
         <xmp:CreateDate>2013-10-17T10:38:27-06:00</xmp:CreateDate>
         <xmp:ModifyDate>2013-10-17T10:38:27-06:00</xmp:ModifyDate>
         <xmp:MetadataDate>2013-10-17T10:38:27-06:00</xmp:MetadataDate>
         <xmp:Thumbnails>
            <rdf:Alt>
               <rdf:li rdf:parseType="Resource">
                  <xmpGImg:width>232</xmpGImg:width>
                  <xmpGImg:height>256</xmpGImg:height>
                  <xmpGImg:format>JPEG</xmpGImg:format>
                  <xmpGImg:image>/9j/4AAQSkZJRgABAgEASABIAAD/7QAsUGhvdG9zaG9wIDMuMAA4QklNA+0AAAAAABAASAAAAAEA&#xA;AQBIAAAAAQAB/+4ADkFkb2JlAGTAAAAAAf/bAIQABgQEBAUEBgUFBgkGBQYJCwgGBggLDAoKCwoK&#xA;DBAMDAwMDAwQDA4PEA8ODBMTFBQTExwbGxscHx8fHx8fHx8fHwEHBwcNDA0YEBAYGhURFRofHx8f&#xA;Hx8fHx8fHx8fHx8fHx8fHx8fHx8fHx8fHx8fHx8fHx8fHx8fHx8fHx8fHx8f/8AAEQgBAADoAwER&#xA;AAIRAQMRAf/EAaIAAAAHAQEBAQEAAAAAAAAAAAQFAwIGAQAHCAkKCwEAAgIDAQEBAQEAAAAAAAAA&#xA;AQACAwQFBgcICQoLEAACAQMDAgQCBgcDBAIGAnMBAgMRBAAFIRIxQVEGE2EicYEUMpGhBxWxQiPB&#xA;UtHhMxZi8CRygvElQzRTkqKyY3PCNUQnk6OzNhdUZHTD0uIIJoMJChgZhJRFRqS0VtNVKBry4/PE&#xA;1OT0ZXWFlaW1xdXl9WZ2hpamtsbW5vY3R1dnd4eXp7fH1+f3OEhYaHiImKi4yNjo+Ck5SVlpeYmZ&#xA;qbnJ2en5KjpKWmp6ipqqusra6voRAAICAQIDBQUEBQYECAMDbQEAAhEDBCESMUEFURNhIgZxgZEy&#xA;obHwFMHR4SNCFVJicvEzJDRDghaSUyWiY7LCB3PSNeJEgxdUkwgJChgZJjZFGidkdFU38qOzwygp&#xA;0+PzhJSktMTU5PRldYWVpbXF1eX1RlZmdoaWprbG1ub2R1dnd4eXp7fH1+f3OEhYaHiImKi4yNjo&#xA;+DlJWWl5iZmpucnZ6fkqOkpaanqKmqq6ytrq+v/aAAwDAQACEQMRAD8A9U4q7FXYq7FXYq7FXYq7&#xA;FXYq7FXYq7FXYq7FXYq7FXYq7FXYq7FXYq7FXYq7FXYq7FXYq7FXYq7FXYq7FXYq7FXYq7FXYq7F&#xA;XYqhLnVtPt6iSdeQ/ZX4j9wriqWz+a7daiGBn92IUfhyw0qCk8037bIkae9CT+JxpVBvMWrHpMF+&#xA;SL/EY0rX+INX/wCWj/hE/wCacaVtfMWrDrMD80X+AxpVePzTfrs6Rv70IP4HGlRkPmyA0E0DJ4lS&#xA;G/XxxpUzttX064oI5l5H9hvhP44FReKuxV2KuxV2KuxV2KuxV2KuxV2KuxV2KuxV2KuxV2KuJABJ&#xA;NANyTiqT33mW0gqluPXk8Rsg+nv9GGlSG81i/uiRJKVQ/wC60+Ff7fpxVBYVdirsVdirsVdirsVd&#xA;irsVRlnq9/a0EcpKD/db/Ev49PowKn1h5ltZqJcD0JDty6ofp7Y0qcqysAykEHcEbjArsVdirsVd&#xA;irsVdirsVdirsVdirsVdirsVQmoana2MfKU1cj4Ix9o/2YqxXUdYu71iHbhD2iXp9PjhVA4Vdirs&#xA;VdirsVdirsVdirsVdirsVdirsVRun6vd2TURucXeJvs/R4YFZXp+qWt8lYjSQD44m+0P6jAqLxV2&#xA;KuxV2KuxV2KuxV2KuxV2KuxVKtY1uOyBiio9yR07L7n+mKsUmmlmkaSVi7tuWOSVZirsVdirsVdi&#xA;rsVdirsVdirsVdirsVdirsVdiq6KWSKQSRsUddww64qyvR9cS8AhmolyOng/y9/bAqbYFdirsVdi&#xA;rsVdirsVdirsVSrW9ZWzT0YSDcuP+AB7n38MKsRdyxLOak7sxwqgf07on/Vwtv8AkdH/AFyvxY94&#xA;b/yuX+bL5F36d0T/AKuFt/yOj/rj4se8L+Vy/wA2XyLv07on/Vwtv+R0f9cfFj3hfyuX+bL5F36d&#xA;0T/q4W3/ACOj/rj4se8L+Vy/zZfIu/Tuif8AVwtv+R0f9cfFj3hfyuX+bL5F36d0T/q4W3/I6P8A&#xA;rj4se8L+Vy/zZfIu/Tuif9XC2/5HR/1x8WPeF/K5f5svkXfp3RP+rhbf8jo/64+LHvC/lcv82XyL&#xA;v07on/Vwtv8AkdH/AFx8WPeF/K5f5svkXfp3RP8Aq4W3/I6P+uPix7wv5XL/ADZfIu/Tuif9XC2/&#xA;5HR/1x8WPeF/K5f5svkXfp3RP+rhbf8AI6P+uPix7wv5XL/Nl8i79O6J/wBXC2/5HR/1x8WPeF/K&#xA;5f5svkXfp3RP+rhbf8jo/wCuPix7wv5XL/Nl8i79O6J/1cLb/kdH/XHxY94X8rl/my+Rd+ndE/6u&#xA;Ft/yOj/rj4se8L+Vy/zZfIu/Tuif9XC2/wCR0f8AXHxY94X8rl/my+RVrTU7C4kpaXcU0ifFSKRW&#xA;Yb9fhJyQmDyLCeGcd5Aj3hmuh6yLtPQnNLlRsf5wO/zwtabYFdirsVdirsVdirsVQeq6iljbGQ7y&#xA;ttEnifH5DFWFSyySyNJIxZ3NWY9zklU5EDxsh2DAgn5imAhING3zc6lGKt9pSQfmM5x9IBtrAl2K&#xA;uxV2KuxV2KuxV2KuxV2KuxV2KuxV2KuxV2Ks6/KKEtr13L2jtSv0tIn/ADTmfoB6z7nRdvy/dRH9&#xA;L9BeuRyPHIsiEq6mqsOxGbZ5Jmmk6kl9bB+kybSr7+I9jkVRuKuxV2KuxV2KtO6ojOxoqgliewGK&#xA;sI1S/e9u2lO0Y+GJfBR/XCqEwq7FXzzrkPo61qEP++rmZP8AgZCM57KKkR5voemlxYonviPuQOVt&#xA;7sVdirsVdirsVdiq+JA8iqehwE7IKK+pxe/35DjLHid9Ti9/vx4yvE76nF7/AH48ZXid9Ti9/vx4&#xA;yvE76nF7/fjxleJ31OL3+/HjK8TvqcXv9+PGV4kFljN6R+TkNZNVmI+yIUU/MuT+oZsuzxzLzftD&#xA;LaA9/wCh6ZmzeZRWmX72V2sw3TpIvip64FZxG6SIroeSMAVI7g4FbxV2KuxV2KpH5nv/AE4FtEPx&#xA;y/FJ/qjt9JwhWMYVdirsVeDedofS816mvjOX/wCDAb+OaHUishe87Nlenh7kkyhznYq7FXYq7FXY&#xA;q7FVW2/v1/z7YJckFH5S1uxV2KuxV2KuxVpzRSfAHCEpZlzY9W/KCGmkX01Pt3ASv+ogP/G+bXs8&#xA;eknzeU9oJfvIj+j+ln2bB0DsVZN5Xvy8TWbn4o/ij/1Sdx9BwFU9wK7FXYq4kKCSaAbk4qwTULtr&#xA;u8lnPRj8I8FGw/DCqHwq7FXYq8U/MuH0/OF23QSrE4/5Fqv/ABrmk1g/eF7XsaV6aPlf3sWzFdq7&#xA;FWXaB5A/S2lQ3/1/0fV5D0vS504uV6818K9MzsOj44iVuj1nbPg5DDguvPy9yY/8qq/7Wn/JD/r5&#xA;lv8AJ39L7P2uN/oi/of7L/jrv+VVf9rT/kh/18x/k7+l9n7V/wBEX9D/AGX/AB13/Kqv+1p/yQ/6&#xA;+Y/yd/S+z9q/6Iv6H+y/467/AJVV/wBrT/kh/wBfMf5O/pfZ+1f9EX9D/Zf8dVLf8qj6y01T/kh/&#xA;18wHs6/4vs/ag+0P9D/ZfsTD/lVR/wCrp/yQ/wCvmQ/kv+l9n7Uf6IP6H+y/Y7/lVR/6un/JD/r5&#xA;j/Jf9L7P2r/og/of7L9jv+VVH/q6f8kP+vmP8l/0vs/av+iD+h/sv2O/5VUf+rp/yQ/6+Y/yX/S+&#xA;z9q/6IP6H+y/Y7/lVR/6un/JD/r5j/Jf9L7P2r/og/of7L9jFPMeifobUjZet69EV/U48PtdqVbM&#xA;DUYfDlw3bt9FqvHx8dUlExpE/wAjlMebmBLsubHsn5Vw+n5VD0/vriR/uon/ABrm50I/d/F43tyV&#xA;6j3RDMMzHTuxVXsLprW7inH7DfEPFTsR92BWdqysoZTVSKg+xwK3irsVS7X7kwaZJQ0aSkan/W6/&#xA;gDirDckrsVdirsVeQ/m1Dw8yQyAbS2qEn3DuP1UzUa8ev4PX9gyvAR3S/QGE5gu7dir1X8uZeflt&#xA;V/33NIv30b/jbNzoT+7+Lxnbka1HvAZRmY6h2KuxV2Kqtt/fp/n2xVMcVdirsVdirsVeRef5A/mm&#xA;7A6II1/5Jqf45z+uP70/jo9n2RGtPH4/exi6NIG+j9eYsebswgMtbHuP5eQ+l5P08U3ZZHO1PtSs&#xA;R+GbzSCsYeG7Wlepl8PuDI8yXXOxV2Ksx8vXRn01ATVoiYz8h0/DIlUyxV2Ksb82T1kgg8AXP0mg&#xA;/VhCpBhV2KuxV2KvLvzhhpfabNT7cUiVp/IwPX/Z5q+0BuC9R7PS9Mx5h55mueidir0r8r5a6Tdx&#xA;fyT8v+CRR/xrm27PPpI83k/aCP72J/o/pZnme6FBavq9ppNmbu75ekGC/AORq3TK8uUQFlv02mlm&#xA;nwx5pF/ysny5/wAX/wDIv+3Mf89j83Y/yFqP6Pzd/wArJ8uf8X/8i/7cfz2PzX+QtR/R+arbfmT5&#xA;b9dP7/r/AL7/ALcH5/H5qew8/wDR+aZf8rI8tfzTf8i/7cH8o4vNj/Iufy+bv+VkeW/Gb/kX/bj/&#xA;ACji81/kXP5fNr/lZHlvxm/5F/24/wAo4vNf5Fz+Xzb/AOVkeW/Gb/kX/bj/ACji81/kXP5fN3/K&#xA;yPLf803/ACL/ALcf5Rxea/yLn8vm851+/TUNZvLyOpjmkJjJ2PEbLt8hmmzz45kh6fSYjjxRieYC&#xA;U3hpD8yMjDm5UUDljN7/AOVIfR8s6WlKH6rExHTdkDH9eb/AKgPc+f66V55n+kU1y5xXYq7FU+8p&#xA;z0nngPRlDj5qafxwFWS4FdirDvMUnPVZRWoQKo+4E/icIVLcKuxV2KuxV53+cUNbLTZqfYkkSv8A&#xA;rqp/40zXdoDYF6H2el6pjyDy/NW9S7FWfflXLvqUR/4qYf8ADg/wzZ9nn6h7nmvaGP0H3/oZ/mye&#xA;aY7+YEfPytdN/vtom/5KKv8AxtmLrR+7LtOxpVqY+d/c8kzSPbOxVUg/vk+eCXJBTDKWt2KuxV2K&#xA;uxV2Koe9PwKPfJwZRQeWM30Zp8PoWFtDSnpRIlP9VQM6OAoAPnOWXFMnvJRGSa3Yq7FUx0CX09Vh&#xA;r0aqn6QafjgKsywK7FWDaq3LUrk/8WMPuNMKoXCrsVdirsVYT+bUPPy3DIBvFdISfYo4/XTMHXj0&#xA;fF3fYMqzkd8f0h5DmoevdirM/wAr5aaxdRfz2/L/AIF1H/G2Z/Z59Z9zofaCP7qJ/pfoL0rNs8ml&#xA;fme1ku/L99BEpeRoiURQSxK/EAAOp2ynUR4oEOX2fkEM8ZHYW8l/w/r3/Vtu/wDkRJ/zTml8Gf8A&#xA;NPye2/O4f58P9MHf4f17/q23f/IiT/mnHwZ/zT8l/O4f58P9MFSDQNe9ZP8Acbd9f98Sf804JYZ1&#xA;9J+SDrMP8+P+mCY/4f1//q2Xf/IiT/mnKvy+T+bL5Fh+cw/z4/6YO/w/r/8A1bLv/kRJ/wA04/l8&#xA;n82XyK/nMP8APj/pg7/D+v8A/Vsu/wDkRJ/zTj+XyfzZfIr+cw/z4/6YO/w/r/8A1bLv/kRJ/wA0&#xA;4/l8n82XyK/nMP8APj/pgtfQtcjRnfTrpEUEszQyAADqSSuA4Jj+E/JI1eImhOPzCBypvQt8d0Hz&#xA;yyDOKnZw+tdwQ9fVkVKf6zAdstiLNIyS4Yk9wfR2dG+cOxV2KuxVE6Y1NRtT/wAWoPvYDArOsCux&#xA;Vgmpf8dG6/4zSf8AEjhVD4VdirsVdirFvzLh9Tyfdt3iaJx/yMVf+NsxdYP3Zdp2NKtTHzv7nima&#xA;R7Z2Ksn/AC6l4eZUX/fkUi/cOX/GuZmiP7x1Hbcb058iHq2bl4x2KuxV2Kqtt/fp/n2xVMcVdirs&#xA;VdiqC1qX0dHvpf5LeVh8whOV5jUCfIt+ljxZYj+kPveG5y73yDvT+8A8B/HLYcmcUX5Yi9XzHpcZ&#xA;6G6hr8hICcvwi5j3uPrZVhmf6J+59A50D5+7FXYq7FURp3/HQtf+Mqf8SGKs7yKuxVgupimo3Q/4&#xA;tc/exOFUNhV2KuxV2KpJ52h9Xypqa+EBf/gCG/hlGpF4y5vZsq1EPe8GzQveuxVPPJMoi80WDHuz&#xA;Lv8A5cbL/HMjSmsgdd2rG9NP8dQ9hzevDOxV2KuxVVtv79P8+2KpjirsVdirsVSbzhL6flnUG8Yu&#xA;P/BkL/HMfVmsUnN7Njeoh73jOc29wgbs1mPsBlsOTOKdeQIvV836avg7P/wEbN/DMrSi8gcHtWVa&#xA;af46vdM3rwrsVdirsVRGmiuo2v8AxlT/AIkMCs7wK7FWF69H6eqzjsxDD/ZAHCFQGFXYq7FXYqgd&#xA;di9bRNQh/wB+W0yf8FGRleUXE+5v0sqyxPdIfe+ec559DdirYJBBBoRuCOuFCp9bu/8Af8n/AAbf&#xA;1w8R72Phx7g763d/7/k/4Nv648R718OPcHfW7v8A3/J/wbf1x4j3r4ce4O+t3f8Av+T/AINv648R&#xA;718OPcFa1vb0TrS4lFfB2/rglI1zYyxQ7h8kx+v33/LTL/wbf1yrjl3sPCh3D5O+v33/AC0y/wDB&#xA;t/XHjl3r4UO4fJ6D+WM11NaXzzTPKodFQOzNSgJNKnbrm37NJINl5rt2MYyiAANizbNk6Jjf5gyc&#xA;PK9yv+/HiX/hw3/GuYevNYi7PseN6geV/c8kzn3skvuDWZ/nl0eTYGVfldD6nmyNv99Qyv8AeOP/&#xA;ABtmboh+8dT23KtOfMh7Nm5eMdirsVdiqO0SP1NVtx4Ny/4EE/wwFWa4FdirF/NcHG7imA2kTiT7&#xA;qf6HCFSTCrsVdirsVWugdGQ9GBB+nAUg0bfN7qUdkPVSQfmM5x9IBtbgSviKiVC32QwLfKuEMZci&#xA;9rOgaIT/ALxQj2CAD7hm/wDAh3B4D85m/nFo+XtEIobKEj/VGPgQ7gv53N/OLyrzdaQ2nmO9t4UE&#xA;cSspRF2ADIrbU+eabUxEchAez7NyGeCMjuf2pPlDnKtt/fr/AJ9sEuSCj8pa3Yq9Q/LGLjoMz95L&#xA;lvuCIM3nZo/dn3vKduyvMB/R/SWX5sHSsP8AzOl46FAnd7lfuCOc1/aR/dj3u67CjeYn+j+kPMM0&#xA;b1aWymsjH3P68vHJsDOvyhhrrl5N/JbFf+DkU/8AGuZ+gHqPudF2/L91Ef0v0F6xm2eTdirsVdiq&#xA;deVYeV7JKRtGlK+7H+gOAqynArsVSnzNberp/qAfFCwb6DscIViWFXYq7FXYq7FXzxrkPo61qEP+&#xA;+7mZP+BkIznsgqRHm+h6aXFiie+I+5BZW3uxV7tYS+tY28v+/Ikf/glBzo4G4gvnOaPDMjuJV8k1&#xA;vL/zF027XXHvBC5t5Y0PrAEpVRxIJHTp3zT62B47rZ6/sTPE4RCxxAnZiWYTu1W2/v1/z7YJckFH&#xA;5S1ro45JHCRqXc9FUEk/QMIFoJAFl675Gsriz8uQR3EbRSszu0bijCrGlQem2dBooGOMW8Z2rljP&#xA;OTE2NmQZluuYJ+aktLfTov5nlb/gQo/42zV9qHaI970HYEfVM+79LzvNO9KlhNST45e2vSPyci31&#xA;WY/8UIv/AA5P8M2XZ45l5r2hl9A9/wCh6XmzeadirsVdirLPLFt6dgZSKNMxI/1V2H41wFU3wK7F&#xA;Vk0STRPE+6upVvkRTFWBTwvBM8L/AGo2Kn6MkqzFXYq7FXYq8G86w+j5r1NOlZ2f/g6P/wAbZodS&#xA;KyH3vedmyvTw9ySZQ5zsVe1+WpPU8v6c3X/R4l/4FQv8M6DAbgPc+f6+NZ5/1imWWuK7FUsvvLOg&#xA;31TcWURY9XUcG/4JOJymenhLmHLw6/Nj+mR+/wC9JG/LDSZLlDbXM0FTurcZBT2+yfxzGn2fE8jT&#xA;ssfb+UD1RB+xPbH8u/LltQypJdOO8rECv+qnEffkodn4xz3cfL2znlyIj7v2p/aWFlZpwtbeOBe4&#xA;jULX50GZcMcY8hTrsmWczciT70Rkmt2KvOPzTlrfWMX8kTt/wTU/41zT9pn1AeT0/YEfRI+bBnNE&#xA;Y+AOawO/SzLmx6v+UENNGvZv57nhX/URT/xvm27PHpJ83k/aCX72I/o/pZ7me6F2KuxVfDE80qRI&#xA;Ks7BV+Z2xVnsEKQQRwp9mNQo+gZFV+KuxV2Ksa80WPGVLxB8L/DJ/rDofpGEKkOFXYq7FXYq8T/M&#xA;qH0/OF41KCVYnH/ItV/WuaTWD94XtuxpXpo+V/exfMV2jsVZ/wCVfPel2mmQWF+HieAFRMq8kK1J&#xA;FQPiH3Zs9PrIxiIyeZ7R7IyTyGcKN9GY2Ot6Rf0+qXcUzH9gMA//AABo34ZnQzQlyLo82ky4/qiR&#xA;+O9G5Y47sVVbb+/T/PtiqY4q7FVryRxoXkYIg6sxoB9JxJrmkAk0EkvvOvluzqGvFmcfsQVkJ+lf&#xA;h/HMWesxR637nOxdl55/w179nnHm3X49b1QXUUbRwxxiKNXpyIBLVIFQN2zTarP4s7HJ6js7SHBj&#xA;4SbJNpDMaRP8jmPHm54S7Lmx7L+VkPp+VFf/AH7PK/3UT/jXNzoR+7+Lxnbkr1HuAZfmY6h2KuxV&#xA;PfK9jzna7cfDF8MfuxG/3DAVZNgV2KuxV2KqV1bR3NvJBJ9lxSvgex+jFWC3NvLbTvDKKOhof6/T&#xA;klU8VdirsVeQ/m1Dw8ywyAbS2qEn3Duv6gM1GvHr+D1/YMrwEd0v0BhOYLu3Yq7FXYqmtj5o1+xo&#xA;Le9kCDojn1F+5+Qy6GonHkXDzdn4Mn1RH3fcyKx/NC+Si31pHMO7xExt9x5A/hmVDtCXUOqzdgQP&#xA;0SI9+7JdL/MTy3M6tLJJbMOqSIT27FOYzJjrsdb7Osy9i6iJ2Al7j+ul19+Z+mR1FlbSXDfzORGv&#xA;/Gx/DKZ9pxH0i2/F2FkP1yA+1jt9+YvmK5qsLR2iH/fS1an+s/L8KZhz7QyS5bOyxdjYI87l7/2M&#xA;fu9Qvrx+d3cSTt2MjFqfKuYk8kpczbsseGEBUQB7kPkGx2KqV0aQN9H68lHmyCAy1m9y/L6H0vJ+&#xA;nLTdldz/ALORm/Uc3mkFYw8N2tK9TL4fcGRZkuudiqpbwSXE6QxiruaAYqzmztY7W2SCP7KClfE9&#xA;zkVVsVdirsVdirsVSjzBpX1mH6xEP38Q3A/aXw+YwhWJ4VdirsVeXfnDDS+02an24pErT+Rgev8A&#xA;s81faA3Beo9npemY8w88zXPROxV2KuxV2KuxVVtv79f8+2CXJBR+UtbsVdiriQBUmg98UqTXUK96&#xA;n2yQiVpDz3PqLxC0HicnGNMgFDJMnv8A5Uh9HyzpaUofqsTEUpuyBj+vOgwCoD3Pn+uleeZ/pFNc&#xA;tcV2Ksq8vaV9Xi+szD99KPhB/ZX+pwFU5wK7FXYq7FXYq7FXYqxrzBovAteWy/Ad5Yx2P8w9sIVI&#xA;cKuxVinn7yld+YbW1+pyRpcWrOQstQGWQCo5AGh+EdsxNVgOQCujteytfHTyPEDUu7yeZaj5K80W&#xA;FTPp8jIP92Qj1Vp4/Byp9OayemyR5h6fD2lgycpD47fekhBBIIoRsQcpc1rAl2KuxV2Kqtt/fL/n&#xA;2wS5IKMaaJerD5DfKhEsKUmvVH2VJ+e2SEE8Ki11M3Q8R7ZIRCaUizMakkn3ySWsUq9pYXt5J6dp&#xA;byXD/wAsSM5/4UHJRiTyDXkyxgLkQPeyXTfyy80XhUzRJZRHq0zCtP8AVTkfvpmTDRZDz2dbm7aw&#xA;Q5HiPk9itLdba0htlNVgjWNT7IAv8M3ERQp43JPikZd5VskxT3QNG9Vlu7hf3Q3iQ/tHxPtgKsmw&#xA;K7FXYq7FXYq7FXYq7FXEAih3BxVjOtaA0fK5tFrH1eIdV9x7YbVIsKuxV2KoLUNE0jUQRe2cNwTt&#xA;ydAWHyb7Q+/K544y5huxanJj+mRDF9R/Kny7cVa0eWyc9Areon/Av8X/AA2Y09DA8tnaYe3c0fqq&#xA;X2fj5MX1H8ptfgq1lNDeIOi19Jz9DfD/AMNmLPQTHLd2mHt7DL6gY/b+PkxfUNB1rTifrtlNAo/b&#xA;ZDw+hx8J+/MWeKUeYdpi1WLJ9MgUBlbkOxV2KrkR3cIilnbZVUVJPsBhAQSBuU+07yH5qv6GOxeG&#xA;M/7snpEKeNGox+gZfDS5JdHAzdqafHzlfu3ZRp35PyGjalfgfzRW61/4d6f8RzKh2f8Azi6vN7QD&#xA;+CPz/UP1so078vPKljQizFzIP27kmSv+xPwf8LmVDSY49LdXm7W1E/4q9237WQwwwwxiOGNY4x0R&#xA;AFA+gZkAAcnXSkSbJtfhQ7FU80XQGm43F2pEXVIzsW9z7YLVk4AAAAoBsAMCuxV2KuxV2KuxV2Ku&#xA;xV2KuxV2KpLqvl6O4JmtaRzdWTorf0OG1YzNDLDIY5UKOOqnbCqzFXYq7FXYq4gEUPTFUl1Hyd5Z&#xA;1CpuNPiDnrJEPSaviSnGv05RPTwlzDmYe0M+P6ZH47/exm9/KDTJH5Wd/LAvdJFWX7iDHmNLs+PQ&#xA;uzx+0EwPVEH7P1o/Tvys8tWtGufVvXHX1G4pX2VOP4k5ZDQwHPdozduZ5fTUfx5snsdK0ywTjZWs&#xA;VuOh9NFUn5kCpzJjCMeQp1mXPPJ9RJRWTanYq7FXYqvihlmkEcSF3booFTirJdK8uxw0mu6PKN1j&#xA;6qvz8TgtU7wK7FXYq7FXYq7FXYq7FXYq7FXYq7FXYqoXlha3kfCdA1Pst0YfI4qxy+8s3UNXtj68&#xA;f8vRx9HfDapO6OjFXUqw6qRQjCrWKuxV2KuxV2KuxV2KuxV2KtqrOwVQWY9ABUnFU3sfLV3NR7g+&#xA;hH4dXP0dvpwWrI7OwtbNOECBa/aY7sfmcCojFXYq7FXYq7FXYq7FXYq7FXYq7FXYq7FXYq7FXYqo&#xA;3NlaXIpPEsngSNx8iN8VSi58q27VNvK0Z/lb4h9+xw2qWz+W9TjrxRZQO6MP1GmNqgpbC9i/vIJF&#xA;HiVNPvxVQIINCKH3wq7FXAEmgFT7YqrxWN7L/dwSN7hTT78CoyDy5qktOSLED3dh+oVONqmdt5Ug&#xA;WhuJmc/yoOI+81xtU2trG0thSCJU8SOv3nfAqvirsVdirsVdirsVdirsVdirsVdirsVdirsVdirs&#xA;VdirsVdirsVdirsVdirqDFXYq7FXYq7FXYq7FXYq7FXYq7FXYq7FXYq7FXYq7FXYq7FXYq7FXYq7&#xA;FXYq7FXYq7FXYq7FXYq7FXYq7FXYq7FXYq7FXYq7FXYq7FXYq7FXYq7FXYq7FXYq7FXYq7FXYq7F&#xA;XYq7FXYq7FXYq7FXYq7FXYq7FXYq7FXYq7FXYq7FXYq7FXYq7FXYq7FXYq7FXYq7FXYq7FXYq7FX&#xA;Yq7FXYq7FXYq7FXYq7FXYq7FXYq7FXYq7FXYq7FXYq7FXYq//9k=</xmpGImg:image>
               </rdf:li>
            </rdf:Alt>
         </xmp:Thumbnails>
      </rdf:Description>
      <rdf:Description rdf:about=""
            xmlns:xmpMM="http://ns.adobe.com/xap/1.0/mm/"
            xmlns:stRef="http://ns.adobe.com/xap/1.0/sType/ResourceRef#"
            xmlns:stEvt="http://ns.adobe.com/xap/1.0/sType/ResourceEvent#"
            xmlns:stMfs="http://ns.adobe.com/xap/1.0/sType/ManifestItem#">
         <xmpMM:RenditionClass>proof:pdf</xmpMM:RenditionClass>
         <xmpMM:OriginalDocumentID>uuid:65E6390686CF11DBA6E2D887CEACB407</xmpMM:OriginalDocumentID>
         <xmpMM:DocumentID>xmp.did:02801174072068118083E29218A40502</xmpMM:DocumentID>
         <xmpMM:InstanceID>xmp.iid:02801174072068118083E29218A40502</xmpMM:InstanceID>
         <xmpMM:DerivedFrom rdf:parseType="Resource">
            <stRef:instanceID>xmp.iid:FA7F117407206811822AE38218D56A6D</stRef:instanceID>
            <stRef:documentID>xmp.did:FA7F117407206811822AE38218D56A6D</stRef:documentID>
            <stRef:originalDocumentID>uuid:65E6390686CF11DBA6E2D887CEACB407</stRef:originalDocumentID>
            <stRef:renditionClass>proof:pdf</stRef:renditionClass>
         </xmpMM:DerivedFrom>
         <xmpMM:History>
            <rdf:Seq>
               <rdf:li rdf:parseType="Resource">
                  <stEvt:action>saved</stEvt:action>
                  <stEvt:instanceID>xmp.iid:0280117407206811822AE505F92460CA</stEvt:instanceID>
                  <stEvt:when>2013-10-13T13:56:36-06:00</stEvt:when>
                  <stEvt:softwareAgent>Adobe Illustrator CS6 (Macintosh)</stEvt:softwareAgent>
                  <stEvt:changed>/</stEvt:changed>
               </rdf:li>
               <rdf:li rdf:parseType="Resource">
                  <stEvt:action>saved</stEvt:action>
                  <stEvt:instanceID>xmp.iid:02801174072068118083E29218A40502</stEvt:instanceID>
                  <stEvt:when>2013-10-17T10:38:27-06:00</stEvt:when>
                  <stEvt:softwareAgent>Adobe Illustrator CS6 (Macintosh)</stEvt:softwareAgent>
                  <stEvt:changed>/</stEvt:changed>
               </rdf:li>
            </rdf:Seq>
         </xmpMM:History>
         <xmpMM:Manifest>
            <rdf:Seq>
               <rdf:li rdf:parseType="Resource">
                  <stMfs:linkForm>EmbedByReference</stMfs:linkForm>
                  <stMfs:reference rdf:parseType="Resource">
                     <stRef:filePath>/Library/WebServer/Documents/portfolio/img/skills/24CB4D5BAE72D62B.png</stRef:filePath>
                  </stMfs:reference>
               </rdf:li>
            </rdf:Seq>
         </xmpMM:Manifest>
      </rdf:Description>
      <rdf:Description rdf:about=""
            xmlns:illustrator="http://ns.adobe.com/illustrator/1.0/">
         <illustrator:StartupProfile>Web</illustrator:StartupProfile>
      </rdf:Description>
      <rdf:Description rdf:about=""
            xmlns:xmpTPg="http://ns.adobe.com/xap/1.0/t/pg/"
            xmlns:stDim="http://ns.adobe.com/xap/1.0/sType/Dimensions#"
            xmlns:xmpG="http://ns.adobe.com/xap/1.0/g/">
         <xmpTPg:NPages>1</xmpTPg:NPages>
         <xmpTPg:HasVisibleTransparency>True</xmpTPg:HasVisibleTransparency>
         <xmpTPg:HasVisibleOverprint>False</xmpTPg:HasVisibleOverprint>
         <xmpTPg:MaxPageSize rdf:parseType="Resource">
            <stDim:w>50.000000</stDim:w>
            <stDim:h>50.000000</stDim:h>
            <stDim:unit>Pixels</stDim:unit>
         </xmpTPg:MaxPageSize>
         <xmpTPg:PlateNames>
            <rdf:Seq>
               <rdf:li>Cyan</rdf:li>
               <rdf:li>Magenta</rdf:li>
               <rdf:li>Yellow</rdf:li>
               <rdf:li>Black</rdf:li>
            </rdf:Seq>
         </xmpTPg:PlateNames>
         <xmpTPg:SwatchGroups>
            <rdf:Seq>
               <rdf:li rdf:parseType="Resource">
                  <xmpG:groupName>Default Swatch Group</xmpG:groupName>
                  <xmpG:groupType>0</xmpG:groupType>
               </rdf:li>
            </rdf:Seq>
         </xmpTPg:SwatchGroups>
      </rdf:Description>
      <rdf:Description rdf:about=""
            xmlns:pdf="http://ns.adobe.com/pdf/1.3/">
         <pdf:Producer>Adobe PDF library 10.01</pdf:Producer>
      </rdf:Description>
   </rdf:RDF>
</x:xmpmeta>
                                                                                                    
                                                                                                    
                                                                                                    
                                                                                                    
                                                                                                    
                                                                                                    
                                                                                                    
                                                                                                    
                                                                                                    
                                                                                                    
                                                                                                    
                                                                                                    
                                                                                                    
                                                                                                    
                                                                                                    
                                                                                                    
                                                                                                    
                                                                                                    
                                                                                                    
                                                                                                    
                           
<?xpacket end="w"?>
	</metadata>
<g>
	<g>
		<g>
			<defs>
				<rect id="SVGID_1_" x="-1.067" y="-1.045" width="50.133" height="56.113"/>
			</defs>
			<clipPath id="SVGID_2_">
				<use xlink:href="#SVGID_1_"  overflow="visible"/>
			</clipPath>
			<g clip-path="url(#SVGID_2_)">
				<g>
					<defs>
						<rect id="SVGID_3_" x="-1.067" y="-1.045" width="50.133" height="56.113"/>
					</defs>
					<clipPath id="SVGID_4_">
						<use xlink:href="#SVGID_3_"  overflow="visible"/>
					</clipPath>
					<g clip-path="url(#SVGID_4_)">
						<g>
							<defs>
								<rect id="SVGID_5_" x="-1.067" y="-1.045" width="50.133" height="56.113"/>
							</defs>
							<defs>
								<rect id="SVGID_6_" x="-1.067" y="-1.045" width="50.133" height="56.113"/>
							</defs>
							<defs>
								<rect id="SVGID_7_" x="-1.067" y="-1.045" width="50.133" height="56.113"/>
							</defs>
							<defs>
								<rect id="SVGID_8_" x="-1.067" y="-1.045" width="50.133" height="56.113"/>
							</defs>
							<defs>
								<rect id="SVGID_9_" x="-1.067" y="-1.045" width="50.133" height="56.113"/>
							</defs>
							<defs>
								<rect id="SVGID_10_" x="-1.067" y="-1.045" width="50.133" height="56.113"/>
							</defs>
							<defs>
								<rect id="SVGID_11_" x="-1.067" y="-1.045" width="50.133" height="56.113"/>
							</defs>
							<defs>
								<rect id="SVGID_12_" x="-1.067" y="-1.045" width="50.133" height="56.113"/>
							</defs>
							<defs>
								<rect id="SVGID_13_" x="-1.067" y="-1.045" width="50.133" height="56.113"/>
							</defs>
							<defs>
								<rect id="SVGID_14_" x="-1.067" y="-1.045" width="50.133" height="56.113"/>
							</defs>
							<defs>
								<rect id="SVGID_15_" x="-1.067" y="-1.045" width="50.133" height="56.113"/>
							</defs>
							<defs>
								<rect id="SVGID_16_" x="-1.067" y="-1.045" width="50.133" height="56.113"/>
							</defs>
							<defs>
								<rect id="SVGID_17_" x="-1.067" y="-1.045" width="50.133" height="56.113"/>
							</defs>
							<defs>
								<rect id="SVGID_18_" x="-1.067" y="-1.045" width="50.133" height="56.113"/>
							</defs>
							<defs>
								<rect id="SVGID_19_" x="-1.067" y="-1.045" width="50.133" height="56.113"/>
							</defs>
							<defs>
								<rect id="SVGID_20_" x="-1.067" y="-1.045" width="50.133" height="56.113"/>
							</defs>
							<clipPath id="SVGID_21_">
								<use xlink:href="#SVGID_5_"  overflow="visible"/>
							</clipPath>
							<clipPath id="SVGID_22_" clip-path="url(#SVGID_21_)">
								<use xlink:href="#SVGID_6_"  overflow="visible"/>
							</clipPath>
							<clipPath id="SVGID_23_" clip-path="url(#SVGID_22_)">
								<use xlink:href="#SVGID_7_"  overflow="visible"/>
							</clipPath>
							<clipPath id="SVGID_24_" clip-path="url(#SVGID_23_)">
								<use xlink:href="#SVGID_8_"  overflow="visible"/>
							</clipPath>
							<clipPath id="SVGID_25_" clip-path="url(#SVGID_24_)">
								<use xlink:href="#SVGID_9_"  overflow="visible"/>
							</clipPath>
							<clipPath id="SVGID_26_" clip-path="url(#SVGID_25_)">
								<use xlink:href="#SVGID_10_"  overflow="visible"/>
							</clipPath>
							<clipPath id="SVGID_27_" clip-path="url(#SVGID_26_)">
								<use xlink:href="#SVGID_11_"  overflow="visible"/>
							</clipPath>
							<clipPath id="SVGID_28_" clip-path="url(#SVGID_27_)">
								<use xlink:href="#SVGID_12_"  overflow="visible"/>
							</clipPath>
							<clipPath id="SVGID_29_" clip-path="url(#SVGID_28_)">
								<use xlink:href="#SVGID_13_"  overflow="visible"/>
							</clipPath>
							<clipPath id="SVGID_30_" clip-path="url(#SVGID_29_)">
								<use xlink:href="#SVGID_14_"  overflow="visible"/>
							</clipPath>
							<clipPath id="SVGID_31_" clip-path="url(#SVGID_30_)">
								<use xlink:href="#SVGID_15_"  overflow="visible"/>
							</clipPath>
							<clipPath id="SVGID_32_" clip-path="url(#SVGID_31_)">
								<use xlink:href="#SVGID_16_"  overflow="visible"/>
							</clipPath>
							<clipPath id="SVGID_33_" clip-path="url(#SVGID_32_)">
								<use xlink:href="#SVGID_17_"  overflow="visible"/>
							</clipPath>
							<clipPath id="SVGID_34_" clip-path="url(#SVGID_33_)">
								<use xlink:href="#SVGID_18_"  overflow="visible"/>
							</clipPath>
							<clipPath id="SVGID_35_" clip-path="url(#SVGID_34_)">
								<use xlink:href="#SVGID_19_"  overflow="visible"/>
							</clipPath>
							<clipPath id="SVGID_36_" clip-path="url(#SVGID_35_)">
								<use xlink:href="#SVGID_20_"  overflow="visible"/>
							</clipPath>
							<path clip-path="url(#SVGID_36_)" fill="#E34D26" d="M24.886,9.333c5,0,9.998,0.005,14.997-0.008
								c0.389-0.001,0.512,0.082,0.473,0.489c-0.287,2.946-0.558,5.894-0.828,8.841c-0.24,2.636-0.475,5.272-0.715,7.909
								c-0.242,2.649-0.492,5.299-0.733,7.949c-0.157,1.729-0.319,3.459-0.458,5.189c-0.028,0.367-0.122,0.555-0.525,0.663
								c-3.959,1.052-7.908,2.132-11.86,3.211c-0.259,0.069-0.493,0.063-0.748-0.005c-3.965-1.082-7.931-2.16-11.9-3.229
								c-0.302-0.08-0.402-0.219-0.429-0.516c-0.418-4.665-0.849-9.326-1.271-13.988c-0.385-4.224-0.762-8.449-1.145-12.672
								c-0.099-1.091-0.211-2.181-0.311-3.272c-0.052-0.562-0.047-0.563,0.5-0.563C14.917,9.333,19.901,9.333,24.886,9.333"/>
							<path clip-path="url(#SVGID_36_)" fill="#F06529" d="M24.884,15.624c0-1.111,0.011-2.222-0.004-3.333
								c-0.005-0.307,0.07-0.422,0.402-0.42c3.959,0.011,7.918,0.01,11.878,0.001c0.311-0.001,0.404,0.11,0.376,0.397
								c-0.109,1.055-0.218,2.109-0.317,3.164c-0.07,0.732-0.129,1.465-0.197,2.198c-0.107,1.168-0.225,2.335-0.33,3.504
								c-0.066,0.733-0.116,1.467-0.184,2.199c-0.105,1.141-0.219,2.28-0.326,3.42c-0.063,0.689-0.121,1.381-0.187,2.071
								c-0.108,1.196-0.224,2.393-0.329,3.59c-0.066,0.731-0.116,1.467-0.186,2.198c-0.104,1.111-0.229,2.222-0.316,3.335
								c-0.021,0.278-0.165,0.358-0.385,0.416c-1.081,0.286-2.166,0.569-3.244,0.864c-2.01,0.547-4.02,1.103-6.027,1.652
								c-0.028,0.008-0.053,0.021-0.08,0.029c-0.542,0.15-0.542,0.15-0.542-0.402c0-0.968,0.001-1.935,0-2.904
								c0-0.17,0.029-0.345-0.085-0.494c0.089-0.145,0.255-0.145,0.389-0.205c2.305-0.635,4.608-1.271,6.917-1.885
								c0.552-0.146,0.615-0.203,0.664-0.781c0.168-2.025,0.361-4.049,0.543-6.073c0.121-1.345,0.229-2.691,0.381-4.033
								c0.07-0.615,0.033-0.673-0.576-0.673c-2.76-0.005-5.521,0.005-8.281-0.005c-1.534,0.029-3.067,0.014-4.601,0.006
								c-0.178-0.001-0.418,0.054-0.484-0.224c0.113-0.111,0.258-0.109,0.4-0.11c1.466-0.005,2.932-0.003,4.397-0.001
								c0.115,0,0.228,0.014,0.336,0.059c0.967,0.044,1.934,0.014,2.902,0.018c1.864,0.006,3.731,0,5.595,0.004
								c0.135,0,0.284-0.058,0.336-0.008c-0.062-0.059-0.228,0.007-0.373,0.006c-2.662-0.005-5.326-0.002-7.988-0.005
								c-0.156-0.001-0.314,0.032-0.464-0.034c-0.14-0.129-0.139-0.304-0.14-0.473c-0.008-0.891-0.01-1.782,0-2.674
								c0.001-0.156,0.01-0.312,0.11-0.446c0.191-0.169,0.429-0.12,0.65-0.12c2.695-0.004,5.389-0.003,8.084-0.003
								c0.153,0,0.312,0.024,0.461-0.03c0.029-0.036,0.053-0.075,0.068-0.119c0.112-0.988,0.172-1.979,0.282-2.968
								c0.019-0.166,0.032-0.344-0.099-0.484c-0.162-0.13-0.355-0.086-0.537-0.087c-2.748-0.002-5.496,0.001-8.244-0.004
								C25.31,15.754,25.067,15.822,24.884,15.624"/>
							<path clip-path="url(#SVGID_36_)" fill="#EAEAEA" d="M19.771,23.243c0.118,0.164,0.288,0.077,0.429,0.079
								c1.562,0.011,3.125,0.013,4.688,0.019c0.088,0.084,0.121,0.195,0.121,0.31c0.001,1.12,0.058,2.242-0.028,3.363
								c-0.02,0.055-0.051,0.098-0.094,0.137c-0.164-0.07-0.337-0.041-0.506-0.041c-2.578-0.002-5.156-0.01-7.733,0.009
								c-0.375,0.003-0.463-0.104-0.495-0.472c-0.255-2.963-0.539-5.923-0.812-8.884c-0.055-0.596-0.087-1.193-0.166-1.786
								c-0.038-0.287,0.056-0.339,0.312-0.334c0.754,0.012,1.51,0.003,2.264,0.003c2.208,0,4.415,0.001,6.623-0.001
								c0.17,0,0.34-0.014,0.511-0.021c2.449,0.006,4.899,0.011,7.35,0.017c0.641,0.001,1.281-0.004,1.922,0.003
								c0.132,0.002,0.285-0.068,0.394,0.076c-0.219,0.184-0.483,0.139-0.733,0.14c-2.633,0.002-5.262,0.001-7.893,0.001
								c-0.128,0-0.256-0.002-0.385,0.001c-0.467,0.014-0.507,0.05-0.512,0.521c-0.006,0.768-0.004,1.536,0,2.304
								c0.002,0.54,0.033,0.57,0.589,0.572c2.631,0.002,5.261-0.001,7.891,0.003c0.236,0.001,0.489-0.049,0.692,0.136
								c0.003,0.026-0.001,0.051-0.012,0.075c-0.143,0.099-0.304,0.048-0.455,0.048c-2.939,0.011-5.879-0.012-8.818,0.014
								c-0.188,0.084-0.388,0.068-0.585,0.068c-1.402,0.001-2.804,0-4.206,0.002c-0.167,0-0.343-0.037-0.484,0.096
								c-0.154,0.45,0.01,0.893,0.032,1.337c0.033,0.691,0.146,1.378,0.17,2.071C19.824,23.16,19.801,23.203,19.771,23.243"/>
							<path clip-path="url(#SVGID_36_)" fill="#EAEAEA" d="M25.157,37.012c-0.102,0.1-0.235,0.073-0.357,0.098
								c-2.436-0.664-4.868-1.34-7.31-1.984c-0.437-0.115-0.612-0.293-0.645-0.76c-0.113-1.656-0.282-3.309-0.428-4.965
								c-0.013-0.14-0.044-0.282,0.028-0.418c0.082-0.082,0.187-0.053,0.282-0.053c1.078-0.003,2.156-0.005,3.234,0.002
								c0.101,0,0.232-0.063,0.302,0.075c0.086,0.919,0.176,1.838,0.258,2.759c0.013,0.149,0.022,0.267,0.208,0.312
								c1.388,0.345,2.754,0.776,4.158,1.062c0.019,0.02,0.036,0.038,0.054,0.059c0.093,0.187,0.074,0.385,0.074,0.58
								c0.003,0.832,0.004,1.664,0,2.494C25.014,36.529,25.042,36.777,25.157,37.012"/>
							<path clip-path="url(#SVGID_36_)" fill="#F06529" d="M24.889,33.139c0-1.961,0-3.92-0.002-5.879
								c0.165-0.15,0.372-0.117,0.567-0.117c1.362-0.01,2.724,0.008,4.085-0.012c0.26,0.044,0.188,0.245,0.182,0.403
								c-0.037,0.866-0.148,1.729-0.218,2.593c-0.041,0.496-0.101,0.989-0.135,1.486c-0.022,0.328-0.166,0.539-0.479,0.619
								c-1.215,0.313-2.418,0.656-3.635,0.957c-0.125,0.03-0.252,0.058-0.373-0.019L24.889,33.139z"/>
							<path clip-path="url(#SVGID_36_)" fill="#EF5A1A" d="M29.587,27.171c-0.124,0.146-0.292,0.086-0.44,0.087
								c-1.42,0.004-2.84,0.002-4.26,0.002h-0.003c-0.024-0.014-0.036-0.027-0.03-0.047c0.005-0.02,0.011-0.029,0.018-0.029
								l0.014-0.033c0.007-0.021,0.007-0.041,0-0.06c0.149-0.137,0.336-0.138,0.52-0.139c1.217-0.003,2.432-0.009,3.647,0.004
								C29.25,26.958,29.488,26.902,29.587,27.171"/>
							<path clip-path="url(#SVGID_36_)" fill="#E34219" d="M24.872,27.184c0.009,0.024,0.012,0.051,0.012,0.076H16.28
								c0-0.025,0-0.052,0-0.076H24.872z"/>
							<path clip-path="url(#SVGID_36_)" fill="#E3461E" d="M20.264,29.007c-1.273-0.008-2.546-0.016-3.819-0.024
								c-0.063-0.129,0.043-0.098,0.099-0.098c1.145-0.002,2.29-0.002,3.436,0C20.09,28.885,20.211,28.868,20.264,29.007"/>
							<path clip-path="url(#SVGID_36_)" fill="#FEFEFE" d="M29.587,27.171c-0.14-0.106-0.302-0.054-0.452-0.055
								c-1.416-0.013-2.833-0.019-4.25-0.025c0.001-1.25,0.001-2.501,0.002-3.75c2.22-0.007,4.443-0.014,6.663-0.019
								c0.627-0.001,1.255,0.021,1.88-0.008c0.354-0.017,0.471,0.071,0.432,0.44c-0.141,1.345-0.252,2.691-0.373,4.038
								c-0.191,2.069-0.391,4.138-0.567,6.207c-0.08,0.948-0.06,0.95-0.97,1.196c-2.153,0.582-4.309,1.164-6.462,1.746
								c-0.11,0.027-0.223,0.045-0.332,0.068c-0.312,0.01-0.272-0.211-0.273-0.408c0-1.144-0.001-2.285-0.002-3.432
								c1.318-0.348,2.638-0.697,3.956-1.044c0.209-0.056,0.381-0.101,0.406-0.394c0.117-1.487,0.262-2.975,0.395-4.461
								C29.641,27.241,29.604,27.205,29.587,27.171"/>
							<path clip-path="url(#SVGID_36_)" fill="#FEFEFE" d="M34.195,19.398c-2.93-0.001-5.858-0.015-8.787,0.007
								c-0.45,0.003-0.547-0.131-0.533-0.551c0.031-0.896,0.026-1.792,0.002-2.687c-0.011-0.36,0.107-0.452,0.458-0.451
								c3.071,0.011,6.144,0.005,9.213,0.003C34.479,16.951,34.412,18.182,34.195,19.398"/>
							<path clip-path="url(#SVGID_36_)" fill="#E34D26" d="M19.762,23.158c-0.16-1.193-0.256-2.39-0.336-3.59
								c0.076-0.054,0.163-0.041,0.247-0.041c1.713,0.003,3.426-0.006,5.139,0.004c0.026,0.012,0.05,0.024,0.075,0.038
								c0,1.195,0,2.392,0,3.589c-0.024,0.012-0.049,0.024-0.075,0.035c-1.587,0.012-3.174,0.003-4.761,0.005
								C19.954,23.198,19.851,23.219,19.762,23.158"/>
							<path clip-path="url(#SVGID_36_)" fill="#EF5B1B" d="M24.885,19.481c1.821-0.005,3.641-0.014,5.463-0.017
								c1.278-0.001,2.56,0.006,3.838,0.009c-0.072,0.217-0.248,0.089-0.362,0.089c-2.978,0.009-5.958,0.007-8.936,0.007
								l-0.003-0.001c-0.027-0.02-0.036-0.039-0.027-0.058C24.867,19.491,24.876,19.481,24.885,19.481"/>
							<path clip-path="url(#SVGID_36_)" fill="#F06022" d="M24.887,23.158h8.868c0.002,0.027,0.002,0.053,0.002,0.079h-8.875
								c-0.026-0.019-0.034-0.036-0.025-0.054c0.01-0.017,0.018-0.025,0.027-0.025H24.887z"/>
							<path clip-path="url(#SVGID_36_)" fill="#E3481F" d="M24.884,23.158c0.001,0.026,0,0.053-0.002,0.079
								c-1.704,0.002-3.408,0.005-5.111,0.006c-0.003-0.028-0.005-0.057-0.008-0.085C21.47,23.158,23.176,23.158,24.884,23.158"/>
							<path clip-path="url(#SVGID_36_)" fill="#E34319" d="M24.885,19.481c-0.001,0.029-0.001,0.058-0.001,0.087
								c-1.819,0-3.638,0-5.458,0c0.014-0.123,0.112-0.11,0.191-0.109C21.374,19.466,23.129,19.473,24.885,19.481"/>
							<g clip-path="url(#SVGID_36_)">
								<g opacity="0.2">
									<g>
										<defs>
											<rect id="SVGID_37_" x="0.898" y="1.136" width="46.958" height="46.958"/>
										</defs>
										<defs>
											<rect id="SVGID_38_" x="0.898" y="1.136" width="46.958" height="46.958"/>
										</defs>
										<clipPath id="SVGID_39_">
											<use xlink:href="#SVGID_37_"  overflow="visible"/>
										</clipPath>
										<clipPath id="SVGID_40_" clip-path="url(#SVGID_39_)">
											<use xlink:href="#SVGID_38_"  overflow="visible"/>
										</clipPath>
										<path clip-path="url(#SVGID_40_)" fill="#000111" d="M47.843,24.614c0,12.959-10.506,23.466-23.466,23.466
											c-12.959,0-23.466-10.507-23.466-23.466S11.417,1.149,24.377,1.149S47.843,11.655,47.843,24.614"/>
										
											<circle clip-path="url(#SVGID_40_)" fill="none" stroke="#000000" stroke-width="0.0273" stroke-miterlimit="10" cx="24.377" cy="24.614" r="23.466"/>
									</g>
								</g>
								<g>
									<defs>
										<rect id="SVGID_41_" x="-1.067" y="-1.045" width="50.133" height="56.113"/>
									</defs>
									<clipPath id="SVGID_42_">
										<use xlink:href="#SVGID_41_"  overflow="visible"/>
									</clipPath>
									<g clip-path="url(#SVGID_42_)">
										<g>
											<g opacity="0.6">
												<defs>
													<rect id="SVGID_43_" x="9.349" y="7.613" opacity="0.6" width="33.23" height="36.3"/>
												</defs>
												<clipPath id="SVGID_44_">
													<use xlink:href="#SVGID_43_"  overflow="visible"/>
												</clipPath>
												<g clip-path="url(#SVGID_44_)">
													<g>
														<defs>
															<rect id="SVGID_45_" x="9.349" y="7.613" width="33.23" height="36.3"/>
														</defs>
														<clipPath id="SVGID_46_">
															<use xlink:href="#SVGID_45_"  overflow="visible"/>
														</clipPath>
														<g transform="matrix(1 0 0 1 9.536743e-07 -4.768372e-07)" clip-path="url(#SVGID_46_)">
														</g>
													</g>
												</g>
											</g>
										</g>
									</g>
								</g>
							</g>
						</g>
					</g>
				</g>
			</g>
		</g>
	</g>
</g>
</svg>
