<?xml version="1.0" encoding="utf-8"?>
<!-- Generator: Adobe Illustrator 16.0.4, SVG Export Plug-In . SVG Version: 6.00 Build 0)  -->
<!DOCTYPE svg PUBLIC "-//W3C//DTD SVG 1.1//EN" "http://www.w3.org/Graphics/SVG/1.1/DTD/svg11.dtd" [
	<!ENTITY ns_extend "http://ns.adobe.com/Extensibility/1.0/">
	<!ENTITY ns_ai "http://ns.adobe.com/AdobeIllustrator/10.0/">
	<!ENTITY ns_graphs "http://ns.adobe.com/Graphs/1.0/">
	<!ENTITY ns_vars "http://ns.adobe.com/Variables/1.0/">
	<!ENTITY ns_imrep "http://ns.adobe.com/ImageReplacement/1.0/">
	<!ENTITY ns_sfw "http://ns.adobe.com/SaveForWeb/1.0/">
	<!ENTITY ns_custom "http://ns.adobe.com/GenericCustomNamespace/1.0/">
	<!ENTITY ns_adobe_xpath "http://ns.adobe.com/XPath/1.0/">
]>
<svg version="1.1" id="Layer_1" xmlns:x="&ns_extend;" xmlns:i="&ns_ai;" xmlns:graph="&ns_graphs;"
	 xmlns="http://www.w3.org/2000/svg" xmlns:xlink="http://www.w3.org/1999/xlink" x="0px" y="0px" width="50px" height="50px"
	 viewBox="0 0 50 50" enable-background="new 0 0 50 50" xml:space="preserve">
<metadata><?xpacket begin="﻿" id="W5M0MpCehiHzreSzNTczkc9d"?>
<x:xmpmeta xmlns:x="adobe:ns:meta/" x:xmptk="Adobe XMP Core 5.3-c011 66.145661, 2012/02/06-14:56:27        ">
   <rdf:RDF xmlns:rdf="http://www.w3.org/1999/02/22-rdf-syntax-ns#">
      <rdf:Description rdf:about=""
            xmlns:dc="http://purl.org/dc/elements/1.1/">
         <dc:format>image/svg+xml</dc:format>
         <dc:title>
            <rdf:Alt>
               <rdf:li xml:lang="x-default">Web</rdf:li>
            </rdf:Alt>
         </dc:title>
      </rdf:Description>
      <rdf:Description rdf:about=""
            xmlns:xmp="http://ns.adobe.com/xap/1.0/"
            xmlns:xmpGImg="http://ns.adobe.com/xap/1.0/g/img/">
         <xmp:CreatorTool>Adobe Illustrator CS6 (Macintosh)</xmp:CreatorTool>
         <xmp:CreateDate>2014-01-07T18:01:24-07:00</xmp:CreateDate>
         <xmp:ModifyDate>2014-01-07T18:01:24-07:00</xmp:ModifyDate>
         <xmp:MetadataDate>2014-01-07T18:01:24-07:00</xmp:MetadataDate>
         <xmp:Thumbnails>
            <rdf:Alt>
               <rdf:li rdf:parseType="Resource">
                  <xmpGImg:width>256</xmpGImg:width>
                  <xmpGImg:height>256</xmpGImg:height>
                  <xmpGImg:format>JPEG</xmpGImg:format>
                  <xmpGImg:image>/9j/4AAQSkZJRgABAgEASABIAAD/7QAsUGhvdG9zaG9wIDMuMAA4QklNA+0AAAAAABAASAAAAAEA&#xA;AQBIAAAAAQAB/+4ADkFkb2JlAGTAAAAAAf/bAIQABgQEBAUEBgUFBgkGBQYJCwgGBggLDAoKCwoK&#xA;DBAMDAwMDAwQDA4PEA8ODBMTFBQTExwbGxscHx8fHx8fHx8fHwEHBwcNDA0YEBAYGhURFRofHx8f&#xA;Hx8fHx8fHx8fHx8fHx8fHx8fHx8fHx8fHx8fHx8fHx8fHx8fHx8fHx8fHx8f/8AAEQgBAAEAAwER&#xA;AAIRAQMRAf/EAaIAAAAHAQEBAQEAAAAAAAAAAAQFAwIGAQAHCAkKCwEAAgIDAQEBAQEAAAAAAAAA&#xA;AQACAwQFBgcICQoLEAACAQMDAgQCBgcDBAIGAnMBAgMRBAAFIRIxQVEGE2EicYEUMpGhBxWxQiPB&#xA;UtHhMxZi8CRygvElQzRTkqKyY3PCNUQnk6OzNhdUZHTD0uIIJoMJChgZhJRFRqS0VtNVKBry4/PE&#xA;1OT0ZXWFlaW1xdXl9WZ2hpamtsbW5vY3R1dnd4eXp7fH1+f3OEhYaHiImKi4yNjo+Ck5SVlpeYmZ&#xA;qbnJ2en5KjpKWmp6ipqqusra6voRAAICAQIDBQUEBQYECAMDbQEAAhEDBCESMUEFURNhIgZxgZEy&#xA;obHwFMHR4SNCFVJicvEzJDRDghaSUyWiY7LCB3PSNeJEgxdUkwgJChgZJjZFGidkdFU38qOzwygp&#xA;0+PzhJSktMTU5PRldYWVpbXF1eX1RlZmdoaWprbG1ub2R1dnd4eXp7fH1+f3OEhYaHiImKi4yNjo&#xA;+DlJWWl5iZmpucnZ6fkqOkpaanqKmqq6ytrq+v/aAAwDAQACEQMRAD8A9U4q7FXYq7FXYq7FXYq7&#xA;FXYq7FXYq7FXYqseaJPtuF9icVUm1C0H7dfkDiqmdUtx0Vj9A/rirX6Vh/kb8P64q4arB3Vvw/ri&#xA;q9dStT1JX5j+mKqyXVu/2ZF+VafrxVUxV2KuxV2KuxV2KuxV2KuxV2KuxV2KuxV2KuxV2KuxV2Ku&#xA;xV2KuxV2KqctxDEPjYA+Hf7sVQUuqnpElPdv6DFUJJdXEn2nNPAbD8MVUsKuxV2KuxV2KuxV2Kr0&#xA;mlj+w5X5HFUVFqky7OA4+44FRkN/by7cuLeDbYqiMVdirsVdirsVdirsVdirsVdirsVdirsVdirs&#xA;VdirsVWTTxRLykangO5xVLbjUpX2j+BfHviqEJJNTuT3wq1irsVdirsVdirsVdirsVdirsVdirsV&#xA;V4LyeHYHkv8AKdxgVMre9hm2rxf+U/wxVEYq7FXYq7FXYq7FXYq7FXYq7FXYq7FXYq7FUJd6gsVU&#xA;j+KTuewxVK5JHkYs55Me5wqtxV2KuxV2KuxV2KuxV2KuxV2KuxV2KuxV2KuxV2Ko611Flok3xL2f&#xA;uPngVMlZWAZTUHoRireKuxV2KuxV2KuxV2KuxV2KuxV2Kpde39axwnb9px/DFUvwq7FXYq7FXYq7&#xA;FXYq7FXYq7FXYq7FXYq7FXYq7FXYq7FXYqiLW8eBqfajPVf6YFTeORJEDoaqcVXYq7FXYq7FXYq7&#xA;FXYq7FXYqlt/e1rDGdujt4+2KoDCrsVdirsVdirsVdirsVdirsVdirsVdirsVdirsVdirsVdirsV&#xA;diqva3TwP4oftLgVOUdXQOpqp3BxVvFXYq7FXYq7FXYq7FUHqF36a+kh+Nup8BiqVYVdirsVdirs&#xA;VdirsVdirsVdirsVdirsVWyOqIzt9lQWPyG+KvLbTzT+Z+uxTarokEP6OWVo0tgIiwCAGh9QhmNG&#xA;7fRl5jEbFpEpHcJnoX5qL9cGm+ZrQ6Xeg8TMQyxV/wAtX+JPnuMjLF1CRk72eQ3drOKwTJKDuODB&#xA;v1HKqbbVcVdirsVdirsVdiqLsLv0n4Mf3bfgfHAqbYq7FXYq7FXYq7FVO4nWGIuevRR4nFUkd2di&#xA;zGrE1JwqtxV2KuxV2KuxV2KuxV2KuxV2KuxV2KuxV2KvNrV5fIPmc2kv/KL6vJzglPSCU7UJ9tgf&#xA;8mh7HLj6x5hpHpPkzPzD5X0XzBbCHUYA5XeKdPhlT/VfwPh0yqMiOTZKILErj8mNC4lrC/ura5U1&#xA;R2KSKp+SrG3/AA2WeMWHhBLhqX5geSJQdTDaxogIBm5Fyo9nPxofZ/h7DJVGXLYouUefJ6B5f8y6&#xA;Rr9n9a06bmFoJYW2kjJ7Ovb59DlMokc2yMgU0wMnYq7FXYq7FU00255p6TH4k+yfEf2YFRuKuxV2&#xA;KuxV2KpRqFx6k3EH4E2Hz74qhcKuxV2KuxV2KuxV2KuxV2KuxV2KuxV2KuxV2KpN5w0RNZ8uXtkU&#xA;DzGMvbbVImQVSnzO305KEqLGQsID8t9ZbVfKdq8rcri1razE9ax0419yhXDkFFGM2FTy75Vk0TXd&#xA;UntpAmk3ojkgswTRJd/UoOgHhTxp2xlKwFjGiyN0R0ZHUMjAqysKgg7EEHIM3mfmnyVqHl27PmTy&#xA;kWi9L4rqxWpATq3Ff2k/mXt1HtdGd7FplCtwy/yf5usfMum/WIf3V1FRbu2JqUYjqPFW7HK5w4S2&#xA;RlafZFk7FXYq7FV0UjRyK69VNcVT2ORZEV16MKjAq7FXYq7FVG8m9GBmH2jsvzOKpJhV2KuxV2Ku&#xA;xV2KuxV2KuxV2KuxV2KuxV2KuxV2KuxV53plwnk/zzeabdH0tH1xvrFlMdkSUk1WvQbkr/wOWn1R&#xA;vqGoemVd70TKm12KuxV5R5q0258j+ZoPMekR/wC4y6YrdWy7IC27x+yt9pPA5fE8QotEhwmw9QsL&#xA;61v7KC9tX9S3uEEkT+IYd/fxygim4G1fFLsVdirsVTHS5/tQn/WX+OBUwxV2KuxVK9Ul5SiMdEFT&#xA;8ziqCwq7FXYq7FXYq7FXYq7FXYq7FXYq7FXYq7FXYq7FXYqwL82EN9Bo+ixKpu9QvAI2IqVVRxYg&#xA;9h+8FctxbWWrJ0DO40CRqgJIUBQT12FMqbV2KuxVL/MGjwaxo13p0wBFxGVRj+y43Rv9i1DhiaNo&#xA;kLDCPyf1eVYL7y7d1S5sJGeKM9QpbjIv+xk/4lluUdWvEej0fKW12KuxV2KqkEpimVx+yd/l3xVP&#xA;Qaio6YFdiriQBU9BiqQyyGSRnP7RJwqsxV2KuxV2KuxV2KuxV2KuxV2KuxV2KuxV2KuxV2KuxVgu&#xA;vHn+avlyJt0W2ndR/lcJTX/hRlsfoLWfqDJ9d8xaXodvFPqEvprNKsMajdiWNCafyqN2P8aZXGJP&#xA;JmZAJngS7FXYq8r88RSeVfO9h5ntkP1W7NLtF7sBxlHh8aGo/wAoVy+HqjTTP0m3qME8U8Ec8LB4&#xA;ZVDxuOjKwqCPmMobl+KuxV2KuxVOrGTnbJ4r8J+jAqviqjePwtpD3pQfTtiqSYVdirsVdirsVdir&#xA;sVdirsVdirsVdirsVdirsVdirsVdirAvzDY6V5g8veZKH0LaY2924HRJP+bS+W49wQ1T2ILH/wAz&#xA;IrrXvOmnaNZurf6ODDU/Dzk5OTXwKquTx7Rtjk3NM0/LrzA2reX0huCRqOnEW12jfaqmyMf9YDf3&#xA;ByrJGi2QlYZTkGbsVSbzd5di8waFPp7ELKf3ltIeiyr9kn27H2OShKjbGUbDAdB84+YPKFtFpXmP&#xA;Sp/qEBKQ3aCpUE14hifTkArtRhTLZQEtwWoSMdi9G0TzDo+t231jTblZ1FOaDZ0J7MhoRlMokc24&#xA;SB5JjgS7FXYqmOkvtInyYfqOBUwxVB6o1IFX+Zv1DFUqwq7FXYq7FXYq7FXYq7FXYq7FXYq7FXYq&#xA;7FXYq7FXYq7FUHrGkWWr6bPp96vK3nWjU6g9QynsVO4wg0bQRbEvK35Z/oXXE1S51Fr5rdDHaIyF&#xA;SoKlNyWbopIAGTlksUwjjo2idW0K60bX/wDE+jRtKk3w6zp6dZEPWWMd3X7VO/0nESsUVIo2GWW1&#xA;zBc28dxA4khlUPG69CD0OVlsVMVdirTojoUdQyMKMrCoI9wcVYTrv5eendfpfyrN+i9Vj39JPhgl&#xA;7lSvRa+FOPt3yyOToWsw6hMfKvm6TUbiXSdWtzYa9ais1s32ZFH7cZ7j/MVwShW45JjK9jzZNkGb&#xA;sVRemNS5p/MpH8f4YFTbFUv1Y7RD5n9WKpdhV2KuxV2KuxV2KuxV2KuxV2KuxV2KuxV2KuxV2Kux&#xA;V2KuxV2KuxVD29lFbzSyQllSY8nhFPT5n7TqKVBbvQ079anG0UiMUuxVKvNEWsy6Ddro0ph1ILyg&#xA;YAEkqQSo5VFWWoGGNXuxldbPIPKul2HmfUJbbzHrV1Ffh+KWshoznuFklLDkDtw4/L2yZHh5BoiL&#xA;5l6Zof5b+V9HvI723ilkuojWKWWQkqaU2C8V+8ZRLIS3DGAyjIM3Yqr2JpdR/On3jAqdYql2rfaj&#xA;+R/hiqX4VdiqncXNtbRGa5lSGIUBkkYIorsNzQY0qEHmDQWIA1K1JOwAnjrX/gsPCUcQR+BLsVUr&#xA;m7tbWL1bmZIIq09SVgi1ParEDEBbQ0eu6JLIsceoWzyOQqIs0ZZmJoAADuTh4SiwjsCXYq7FXYq7&#xA;FXYqgZ9d0aBykt9AjjqpkWo+YrmNPV4omjKPzcmGizSFiEiPcqWuqabdmltdRTN/KjqT9wNcnj1G&#xA;Of0yB+LHLpsmP6oke8IrLmh2KqNzeWlqnO5mjhXs0jBR+OVzyxgLkQPe2Y8U5mogn3IMeZdALcRf&#xA;wV93AG/udsoGvwX9cfm5J7O1FXwS+SPhnhmjEkMiyxno6EMD9IzJjMSFg2HEnCUTUhRX5Jioz3lp&#xA;bkCeeOEt9kSMq1p4VOVzyxj9RAbIYpz+kE+4LoLm2uFLQSpKoNCyMGAP0YYZIy+kgonjlA1IEe9U&#xA;ybBifm38udG8wMblSbLUf+WqMAh/D1E25fPY++ThkIYSgCl2gal5k8rzx6V5nPr6VIRHZ6wpLJG3&#xA;7KSsdwD0Bbp7jpKQEtwxiSNiz3Km12Kqtr/vTF/rDFU8wKl2rdYj8/4Yql+FXYqwT85Lj0vKccdd&#xA;57qNKewV3/41GW4ebXl5PEsyXGfSPlLVxq/lywv68pJYgJj/AMWJ8D/8MpzCmKLlxNhN8DJ5V+dm&#xA;sfFYaOjdK3U4+9I/+N8vwjq05T0ecaLcfVtZsLitPRuIpK/6jg/wy48mkc305mE5jsVdirsVdirz&#xA;7zv5mupLyTTLSQx28PwzspoXfuK+A6Uzl+1tfIzOOJqI5+b1vY3ZsRAZZi5Hl5BAaL5J1PU7dbou&#xA;ltbv/dl6lmHiFHb5nMfS9k5MseK+GLlaztnFhlw0ZSCLuPy71iEc7aeKZl3ABKN9Fdvxy6fYmWO8&#xA;SD9jRj9oMMtpRI+1mvl+3v7fSbeK/kaW6C1kLnkRU1C170G2dBo4TjiAmbk81rsmOeaRxiodED5s&#xA;8yDR7RUho17PURKdwoHVyP1Zj9pa7wI7fWeX63K7L7O/MTs/RHn+pgVjputeYrx2VjM43luJSeK1&#xA;6VO/0ADOaw4M2qmTz7yXqs+owaOAHIdAPx9qbz/lxqqRForiGVwK+n8S19gSKffmdPsLIBsQS4EP&#xA;aHETRjIBIrO+1XRL9vTLQTxtxmhb7Jp2Ze4zW4s2XTz22I5h2mXBi1OPf1RPI/qep6LqsOq6dFeR&#xA;Djy2kTrxcfaXOy0upGbGJh4XWaWWDIYH+0MR/Mz/AHosP9ST9a5o+3ucPj+h6D2c+mfw/Sjvy2/4&#xA;5d1/xn/40XMnsL+6l/W/Q4vtF/ex/q/pLLs3jz7sVWTwQzwvDPGssMgKyRuAysD1BB2OKtW1vFbW&#xA;8dvCCsUKhI1JLEKooBU1J28cSqpiqtaCtzH/AKwxVO8CoDVl+CNvAkff/tYqluFXYq8y/PCfjYaV&#xA;BX+8llkp/qKo/wCN8uw9WnM87k0Vh5Ug1lR9q9ltZT7enG8f4h8uvemqtreh/kprHO1vtIdviiYX&#xA;MA78Xoj/AEAhfvynMOrbiPR6dlLc8A1iV/NX5gPHGax3V0tvEw7QxkJyH+wXlmUPTFxT6pJBq1sL&#xA;TVby2UcVgnljUb7BHK99+2THJieb6H1fVb228sTarZRpLcxW4uFjkB4kAB32Ug/Zr3zEA3pyidrY&#xA;L5Z/NzUdS12zsL21t4re6k9IyR8wwZgQn2mI3agy2WIANcctl6jlDcwv8w/Pd75ZlsYrOCKd7lZG&#xA;lEvL4QpULTiR1qcsxw4muc6Rf5f+adS8yabcXt5BFAsc3oxCLlvRQzE8if5hgyRESmErYJraSJrN&#xA;8sn2xcS1+lya55/qwRlnf84/e+k6Ig4YV/NH3PUPLWpWt/pFu8BAMUaxyxDqjKKUp4bbZ2OhzxyY&#xA;gY9BXueH7R088WaQl1Ng96aZmOC7FXkvmy/a81+7cmqRN6MfgFj+Hb5mpzie0s3iZ5Hu2+T33ZWD&#xA;w9PEdTv83onlXT0sdCtYwtJJEE0p7lpBy3+QoM6js7AMeGI6nc/F5DtPUHLnkegND3D8Wm2ZzgME&#xA;/MjT0WS1v0FGkrDKfEjdf45zfbuEAxmPcf0PU+zuckSxnpuP0tflreMJryzJ+FlWZR4FTxb/AIkM&#xA;ewcu8ofFfaLDtGfw/T+t35mf70WH+pJ+tcHb3OHx/Qn2c+mfw/Sjvy2/45d1/wAZ/wDjRcyewv7q&#xA;X9b9Di+0X97H+r+ksuzePPuxV2KuxV2KonT1rdp7VP4YFTjFULqScrUn+Ug/w/jiqUYVdiryT88J&#xA;Sb3SYeyRyuPD42Uf8a5fh6tGZE+WtEGpflJeW4X967zXEJ6kvCQRT58OOMpVNMRcWF/l7q/6L822&#xA;EzNxhmf6vN4cZvhFfYNQ/RlmQWGuBova/Ousfojyxf3qtxmEZjgPf1JPgUj5E1zGgLLkTNB5p+TG&#xA;kG41241J1/d2MXFD/wAWTVXb/YBvvy7MdqacQ3ti/naH0vN2rp43Ur/8Gxf/AI2yyHIMJ8y948ru&#xA;lz5V0suAyyWUIdSNj+6AYZiy5lyY8nz/AKzYzaJ5gurRSVkspz6LHrRW5Rt9K0OZQNhxiKL6K0fU&#xA;Y9S0q0v46cbqJJaDsWFSPoO2YhFFygbDxz84r4T+bFtwdrS3jjYeDOTIfwcZkYRs0ZTu9H/LTTvq&#xA;PkywDCklwGuH9/VYlT/wHHKchuTbjFBT82+T31GQ31jQXdAJYjsJKCgIPZs0XaXZhynjh9X3vQ9l&#xA;drDCPDyfR0Pd+xg8U2q6PekoZLS6TZlO1R7g7MM5yMsuCe1xk9RKGLUQ3qcSzPRPzBt5uMOqKIZO&#xA;n1hPsH/WHVc3+k7ajLbJse/o83rewZR9WL1Du6/tZgjpIiujB0YAqymoIPQgjN6CCLDzxBBo83id&#xA;0xa5lY9WdifpOefZDcifN9LxCogeT2m2AFtEBsAigD6M7+H0h82yH1H3qmTYMX/MRQdBjJ/ZuEI/&#xA;4Fh/HNN22P3I/rD9LvPZ8/vz/VP3hjv5eEjXmAPWBwf+CU5q+xP74/1T+h2/tB/i4/rD9KO/Mz/e&#xA;iw/1JP1rmR29zh8f0ON7OfTP4fpR35bf8cu6/wCM/wDxouZPYX91L+t+hxfaL+9j/V/SWXZvHn3Y&#xA;q7FXYq7FUbpSVmZv5V/WcCppiqyZOcTp/MCMVSHCrsVeMfnXJXzJZx0+zZq1f9aWQf8AGuZGHk4+&#xA;Xmzr8q4+PkewatebTt8v3zr/AAyrL9Tbj+l455v0k6P5mv7JRwjjlLwU2pG/xx0+SsBmTA2HHkKL&#xA;KPzD83jV/Lug26OC88X1q8A/34lYaf8ABiTIY4USznKwGcflVpH6P8pQSuKTX7Ncv/qn4U/4VQfp&#xA;yrKbLZjFB5Z+ZUXp+d9UWgFXjbb/AC4kb+OX4/pDTk5vYvy9lMvkzSmNdoeO/wDkMV/hmNk+ot8O&#xA;Tzz86NI9DWrXU0WiXsXCQ/8AFkO2/wDsGX7suwnamrKN7ZP+TmrfWvLctg5rJp8pCj/iuWrr/wAN&#xA;yyGYbs8R2eX61NJ5g84XLQHk19d+lbnr8Jf04/8AhaZfHaLSdy+iLW3jtraG2iFIoUWNB4KgoPwG&#xA;YZctVxVB6lpGnalD6V5CJB+y/Rl/1WG4zHz6bHlFTFuRptXkwyuBp5r5o8sy6LcKVYy2k1fSkPUE&#xA;dVb3/XnJ9oaA4JbbxPJ7TsztIamO+0xz/WE8/LnVZjLNpkjcoghmhB/ZIIDAfPlXNj2HqTZxnlzD&#xA;rPaDSxoZRzuj+hh17G0V5PE32kkdT8wxGaHNHhmR3EvQ4ZcUInvAexabMJ9OtZgaiSJG+9Qc7zBP&#xA;ihE94D53qIcOSUe4lE5a0sT/ADHmC6PBF+1JOD9Cq1fxIzSduTrEB3yd97PQvMT3R/SEn/LeAtq1&#xA;zNT4Y4OP0uwp+CnMHsKF5ZHuj+l2PtFOsUY98vuH7UR+Zn+9Fh/qSfrXLO3ucPj+hq9nPpn8P0o7&#xA;8tv+OXdf8Z/+NFzJ7C/upf1v0OL7Rf3sf6v6Sy7N48+7FXYq7FXYqmmlx0hZ/wCc/gMCo3FXYqkt&#xA;7F6dy47E8h8jiqhhV4f+cThvN4ANeFrEpHhux/jmTh5OPl5vSfy0QJ5H0sDoVkb6Wmcn9eU5Pqbc&#xA;fJhf52aRwu7DVkG0ym2mPbknxJ94ZvuyzCejXlHV55pdjNqOpWthF/eXMqQr7c2pX6K1y4mg1AW+&#xA;mra3itreK3hXjDCixxr4KgoB9wzCLmPCPzVRV873xHVlhLfP0VH8MysX0uNk5vUPytkD+RtOFSSh&#xA;mU1/4zuf1HKMv1N2P6Vn5paR+kPKNy6LWaxIuk8aJtJ/wjE/RhxGijILDybyf5lbQ11chipurJ4o&#xA;QOvrFlEbf7EMxy+cbppjKk3/ACi0Q33mX6861g01DISRt6rgrGP+JN9GRyyoMsQsvcMxnIS5PMWj&#xA;Ney2RukS4hbgyueIJ7gE7HwzEGtxGZhxDiDmHQZhAT4TwlMOSleQI49a9qZlW4dMD/MDXLK5jh0+&#xA;2kWZo39WZ1IKggFQtR1PxGuc321q4TAxxN0bL1XYOinAnJIVYoKf5cWUj6hcXpB9KKP0w3Yu5B/A&#xA;LkOwsRMzPoBTP2hzAY4w6k38kv8AO+mPZ65LKFpDd/vo27cj9sf8Fv8ATmN2tpzjzE9Jb/rczsXU&#xA;jJgA/iht+r7E/wDI/mW1+pLpl5KsU0JIgZzQMpNeNT3BzZdk6+PB4czRHJ1PbXZ0+PxYCwefkWXT&#xA;XNvBEZZpVjiAqXdgFp8zm8lOMRZNB5+GOUjURZeYecdej1bUVFuSbS3BWI7jkT9pqHxoM5DtTWDN&#xA;k9P0x5PbdkaE4Mfq+uXP9AZh5G0h7DSfVmXjPdkSMp2IQCiA/ifpze9kaY48VnnLf9Tz3bWrGXNQ&#xA;+mG3x6pN+Zn+9Fh/qSfrXNf29zh8f0Oy9nPpn8P0on8u7m3i0y5EsqRkzVAZgDTgPHL+xJxGOVmv&#xA;V+ho9oMcpZY0CfT+kss+v2P/AC0xf8Gv9c3PjQ7x83Q+BP8Amn5Lzc2yxiVpUEbbK5YcSfY5IzjV&#xA;3sxGORNUbctzbt9mVGovI0YH4fH5YicT1U45DmCvVldQykMp3DA1BGSBtiQRsW8KE+gj9OFE/lG/&#xA;z74FX4q7FUDqkNUWUdV2b5HFUswq8z8+/l35g13zC+oWLQCBoo0Akcq1VG+wU5djyABpnAks08oa&#xA;TdaR5bstOuipuLdWWQoarUuzbEgdjlczZtsiKCj548uya/5dnsIeIuuSSWzOaKHVu5FeqlhjCVFZ&#xA;xsMP8iflnq+j+YY9S1MwNFbo5iWNi59RhxGxVeik5ZPICKDXDGQd3p2UtzzLz7+XOva75hk1CxNu&#xA;sDxxr+8cqxZRQ1AU5dDIAKaZwJLLfIuh32ieXINOveHrxPISY2LKQ7lhuQPHK5ys22QFBO7qCGe2&#xA;mgmFYZUZJQenFhRvwyIZPl1lAcqp5AGgI75nOE+gPy78tnQvLkUUy8b26Pr3QPUMw+FP9itB865i&#xA;ZJWXKhGgyfIM2Gaz+XqzyvcadP6bOSzQzVK1O5o+5+8HNBquxBImWM15H9b0ej7fMQI5BddR+pIX&#xA;8keZ1/drbh0r1WVOPzoWH6s1p7J1I2rb3h2se2tKd+Kj7j+pG6d+XWpSyA30qW8X7Soebn5U+Eff&#xA;mRg7DyE+siI+ZcbUe0GOI/dgyPyH62d6fp9pp9olrapwiT7ye7Me5OdHhwxxREYjZ5bPnnlmZzNk&#xA;qWsaPZ6raG2ulNK8o3XZkbxGQ1OlhmjwyZ6TVzwT4of2sEvvy91mFz9VaO6j/ZIPBvpDbfjnOZux&#xA;MsT6akPk9Th7fwyHruJ+f4+SFj8jeZmajWoQfzNJHT/hWJymPZGoP8NfEORLtvTAfVfwP6kFcWOo&#xA;6JfxtdWw5xtyQSDlE9PwYZjzw5NPMcUeXfyLk48+PU4yIS592xDPfLvnO21WZbSWFobxgSAvxRtQ&#xA;VO/UfT9+dJoe1I5jwkVL7HlO0Ox5YBxg3D7VLzl5b1HWJbVrQxgQq4fmxX7RFKUB8Mj2poZ5zHhr&#xA;a2fZHaOPTiQne9cmOf8AKvNf/mg/4M/805qv5Ez/ANH5/sdz/L+n/pfL9rv+Vea//NB/wZ/5px/k&#xA;TP8A0fn+xf5f0/8AS+X7WWRaDP8A4TGlSrG90sbqhO6hyW4kEjb7XXN3HRn8t4Rrio/N0EtdH834&#xA;ovhsfLZQvvK9zNeCS3ZIImiitpVXasJ5+uAAO9VplWbs+Up3GgKEf83fi/Q24O0oxhUrkbMh/W24&#xA;f0p1o9pLaaXa2stPVhiVH47ioFNs2GmxmGOMTzAdbq8oyZZSHIklNbCH1LgE/ZT4j9HTLnHTjFXY&#xA;q7FWpEV0ZG6MKHFUhljaORkbqpphVbirsVdirsVdirsVSLzl5n/w3pC6j9W+tVlWL0ufp/aDGvLi&#xA;/wDL4ZKEeI0xlKg8w8yfm3qurWMljZ2q6fFOpSZw5lkZTsVDcUCg99svjiAaZZSUy/LT8u7hrmLW&#xA;9YhMcMVHsrVxRnb9mR1PRR1Ud+vTrHJk6BOOHUvWsob3Yq7FXYq7FXYq7FXYq7FVK6tLa7haC5iW&#xA;WJuqOKjK8mOMxUhYbMWWWOXFE0Ut0byxpuk3M89qGLTAKoc14L1Kqeu58cxdLoMeCRlHr9jmavtL&#xA;LqIiM+n2pvmc692KuxV2KuxV2Kpxp8HpQAkfG+5+XbAqJxV2KuxV2KoHU7fkomUbrs/y8cVSzCrs&#xA;VdirsVdirsVUrm1trqEw3MKTwt9qORQ6n5hqjEFaQFp5W8t2cyz2umW0Uy7rIsScgfY02wmRLERC&#xA;aYGTsVdirsVdirsVdirsVdirsVdirsVdirsVdirsVdiqJsbf1ptx8C7t/TAqcYq7FXYq7FXYq4gE&#xA;EHcHYjFUlvLYwS0H2Dup/hiqhhV2KuxV2KuxV2KuxV2KuxV2KuxV2KuxV2KuxV2KuxV2KuxV2Kux&#xA;V2KuxVciM7BVFWOwGKp1bQLDEEHXqx8TgVVxV2KuxV2KuxV2Kqc8CTRlG+g+BxVJZYnikKOKEfjh&#xA;VZirsVdirsVdirsVdirsVdirsVdirsVdirsVdirsVdirsVdirsVdirsVTawtPSX1HH7xu3gMCovF&#xA;XYq7FXYq7FXYq7FXYqo3Vqs6UOzj7LYqk8kTxuUcUYYVWYq7FXYq7FXYq7FXYq7FXYq7FXYq7FXY&#xA;q7FXYq7FXYq7FXYq7FUzsbHhSWUfH+yvhgVHYq7FXYq7FXYq7FXYq7FXYq7FVK4to50o2xH2W7jF&#xA;Uont5IX4uNuzdjhVSxV2KuxV2KuxV2KuxV2KuxV2KuxV2KuxV2KuxV2KuxVtVZmCqKsegGKppZ2A&#xA;io8m8nYdhgVGYq7FXYq7FXYq7FXYq7FXYq7FXYq7FVskaSKVcclPY4qltzprpVovjX+XuP64qgsK&#xA;uxV2KuxV2KuxV2KuxV2KuxV2KuxV2KuxV2Kq9vZzTmoFE7uemBU1t7WKBfhFWPVj1xVVxV2KuxV2&#xA;KuxV2KuxV2KuxV2KuxV2KuxV2KuxVRns4Jt2FG/mHXFUvm06ePdf3i+3X7sVQpBBoRQ+GFWsVdir&#xA;sVdirsVdirsVdirsVdiqtDaTy/ZWi/zHYYFTCDTYk3k/eN4dvuxVFgACg6Yq7FXYq7FXYq7FXYq7&#xA;FXYq7FXYq7FXYq7FXYq7FXYq7FXYqskhikHxoG9z1+/FULJpUR+wxX2O4xVDvplwv2SG+RofxxVR&#xA;azuV6xt9Ar+rFVMxyDqpHzBwq1xbwOKthHPRSfoxVettcN0jb7jiqqmnXTdVC/M/0rgVXj0kf7sk&#xA;+hR/E4qiorO3j3VAT4nc4qrYq7FXYq7FXYq7FXYq7FXYq7FXYq7FXYq7FXYq7FXYq7FXYq7FXYq7&#xA;FXYq7FXYq7FXYq7FXYq7FXYq7FXYq7FXYq7FXYq7FXYq7FXYq7FX/9k=</xmpGImg:image>
               </rdf:li>
            </rdf:Alt>
         </xmp:Thumbnails>
      </rdf:Description>
      <rdf:Description rdf:about=""
            xmlns:xmpMM="http://ns.adobe.com/xap/1.0/mm/"
            xmlns:stRef="http://ns.adobe.com/xap/1.0/sType/ResourceRef#"
            xmlns:stEvt="http://ns.adobe.com/xap/1.0/sType/ResourceEvent#">
         <xmpMM:RenditionClass>proof:pdf</xmpMM:RenditionClass>
         <xmpMM:OriginalDocumentID>uuid:65E6390686CF11DBA6E2D887CEACB407</xmpMM:OriginalDocumentID>
         <xmpMM:DocumentID>xmp.did:0780117407206811808390CDC4DBAA86</xmpMM:DocumentID>
         <xmpMM:InstanceID>xmp.iid:0780117407206811808390CDC4DBAA86</xmpMM:InstanceID>
         <xmpMM:DerivedFrom rdf:parseType="Resource">
            <stRef:instanceID>xmp.iid:0680117407206811808390CDC4DBAA86</stRef:instanceID>
            <stRef:documentID>xmp.did:0680117407206811808390CDC4DBAA86</stRef:documentID>
            <stRef:originalDocumentID>uuid:65E6390686CF11DBA6E2D887CEACB407</stRef:originalDocumentID>
            <stRef:renditionClass>proof:pdf</stRef:renditionClass>
         </xmpMM:DerivedFrom>
         <xmpMM:History>
            <rdf:Seq>
               <rdf:li rdf:parseType="Resource">
                  <stEvt:action>saved</stEvt:action>
                  <stEvt:instanceID>xmp.iid:0280117407206811822AE505F92460CA</stEvt:instanceID>
                  <stEvt:when>2013-10-13T13:56:36-06:00</stEvt:when>
                  <stEvt:softwareAgent>Adobe Illustrator CS6 (Macintosh)</stEvt:softwareAgent>
                  <stEvt:changed>/</stEvt:changed>
               </rdf:li>
               <rdf:li rdf:parseType="Resource">
                  <stEvt:action>saved</stEvt:action>
                  <stEvt:instanceID>xmp.iid:0780117407206811808390CDC4DBAA86</stEvt:instanceID>
                  <stEvt:when>2014-01-07T18:01:24-07:00</stEvt:when>
                  <stEvt:softwareAgent>Adobe Illustrator CS6 (Macintosh)</stEvt:softwareAgent>
                  <stEvt:changed>/</stEvt:changed>
               </rdf:li>
            </rdf:Seq>
         </xmpMM:History>
      </rdf:Description>
      <rdf:Description rdf:about=""
            xmlns:illustrator="http://ns.adobe.com/illustrator/1.0/">
         <illustrator:StartupProfile>Web</illustrator:StartupProfile>
      </rdf:Description>
      <rdf:Description rdf:about=""
            xmlns:xmpTPg="http://ns.adobe.com/xap/1.0/t/pg/"
            xmlns:stDim="http://ns.adobe.com/xap/1.0/sType/Dimensions#"
            xmlns:xmpG="http://ns.adobe.com/xap/1.0/g/">
         <xmpTPg:NPages>1</xmpTPg:NPages>
         <xmpTPg:HasVisibleTransparency>True</xmpTPg:HasVisibleTransparency>
         <xmpTPg:HasVisibleOverprint>False</xmpTPg:HasVisibleOverprint>
         <xmpTPg:MaxPageSize rdf:parseType="Resource">
            <stDim:w>50.000000</stDim:w>
            <stDim:h>50.000000</stDim:h>
            <stDim:unit>Pixels</stDim:unit>
         </xmpTPg:MaxPageSize>
         <xmpTPg:PlateNames>
            <rdf:Seq>
               <rdf:li>Cyan</rdf:li>
               <rdf:li>Magenta</rdf:li>
               <rdf:li>Yellow</rdf:li>
               <rdf:li>Black</rdf:li>
            </rdf:Seq>
         </xmpTPg:PlateNames>
         <xmpTPg:SwatchGroups>
            <rdf:Seq>
               <rdf:li rdf:parseType="Resource">
                  <xmpG:groupName>Default Swatch Group</xmpG:groupName>
                  <xmpG:groupType>0</xmpG:groupType>
               </rdf:li>
            </rdf:Seq>
         </xmpTPg:SwatchGroups>
      </rdf:Description>
      <rdf:Description rdf:about=""
            xmlns:pdf="http://ns.adobe.com/pdf/1.3/">
         <pdf:Producer>Adobe PDF library 10.01</pdf:Producer>
      </rdf:Description>
   </rdf:RDF>
</x:xmpmeta>
                                                                                                    
                                                                                                    
                                                                                                    
                                                                                                    
                                                                                                    
                                                                                                    
                                                                                                    
                                                                                                    
                                                                                                    
                                                                                                    
                                                                                                    
                                                                                                    
                                                                                                    
                                                                                                    
                                                                                                    
                                                                                                    
                                                                                                    
                                                                                                    
                                                                                                    
                                                                                                    
                           
<?xpacket end="w"?>
	</metadata>
<path opacity="0.1" fill="#000111" d="M48.737,24.932c0,12.959-10.506,23.466-23.466,23.466c-12.959,0-23.466-10.507-23.466-23.466
	S12.312,1.466,25.271,1.466S48.737,11.973,48.737,24.932"/>
<g>
	<g>
		<defs>
			<rect id="SVGID_1_" x="-0.469" y="0.533" width="49.469" height="49.467"/>
		</defs>
		<defs>
			<rect id="SVGID_2_" x="-0.469" y="0.533" width="49.469" height="49.467"/>
		</defs>
		<defs>
			<rect id="SVGID_3_" x="-0.469" y="0.533" width="49.469" height="49.467"/>
		</defs>
		<defs>
			<rect id="SVGID_4_" x="-0.469" y="0.533" width="49.469" height="49.467"/>
		</defs>
		<defs>
			<rect id="SVGID_5_" x="-0.469" y="0.533" width="49.469" height="49.467"/>
		</defs>
		<defs>
			<rect id="SVGID_6_" x="-0.469" y="0.533" width="49.469" height="49.467"/>
		</defs>
		<defs>
			<rect id="SVGID_7_" x="-0.469" y="0.533" width="49.469" height="49.467"/>
		</defs>
		<defs>
			<rect id="SVGID_8_" x="-0.469" y="0.533" width="49.469" height="49.467"/>
		</defs>
		<defs>
			<rect id="SVGID_9_" x="-0.469" y="0.533" width="49.469" height="49.467"/>
		</defs>
		<clipPath id="SVGID_10_">
			<use xlink:href="#SVGID_1_"  overflow="visible"/>
		</clipPath>
		<clipPath id="SVGID_11_" clip-path="url(#SVGID_10_)">
			<use xlink:href="#SVGID_2_"  overflow="visible"/>
		</clipPath>
		<clipPath id="SVGID_12_" clip-path="url(#SVGID_11_)">
			<use xlink:href="#SVGID_3_"  overflow="visible"/>
		</clipPath>
		<clipPath id="SVGID_13_" clip-path="url(#SVGID_12_)">
			<use xlink:href="#SVGID_4_"  overflow="visible"/>
		</clipPath>
		<clipPath id="SVGID_14_" clip-path="url(#SVGID_13_)">
			<use xlink:href="#SVGID_5_"  overflow="visible"/>
		</clipPath>
		<clipPath id="SVGID_15_" clip-path="url(#SVGID_14_)">
			<use xlink:href="#SVGID_6_"  overflow="visible"/>
		</clipPath>
		<clipPath id="SVGID_16_" clip-path="url(#SVGID_15_)">
			<use xlink:href="#SVGID_7_"  overflow="visible"/>
		</clipPath>
		<clipPath id="SVGID_17_" clip-path="url(#SVGID_16_)">
			<use xlink:href="#SVGID_8_"  overflow="visible"/>
		</clipPath>
		<clipPath id="SVGID_18_" clip-path="url(#SVGID_17_)">
			<use xlink:href="#SVGID_9_"  overflow="visible"/>
		</clipPath>
		<path clip-path="url(#SVGID_18_)" fill="#6A7E91" d="M15.43,34.004h-1.48c-0.053-2.5-0.197-4.852-0.434-7.055h-0.014l-2.256,7.055
			h-1.127l-2.242-7.055H7.863c-0.166,2.115-0.271,4.467-0.312,7.055H6.199c0.086-3.146,0.305-6.098,0.655-8.852H8.69l2.138,6.502
			h0.014l2.15-6.502h1.756C15.133,28.379,15.359,31.328,15.43,34.004"/>
		<path clip-path="url(#SVGID_18_)" fill="#6A7E91" d="M21.854,27.473c-0.603,3.273-1.399,5.65-2.387,7.135
			c-0.769,1.145-1.612,1.717-2.531,1.717c-0.245,0-0.547-0.074-0.903-0.221v-0.789c0.174,0.027,0.379,0.039,0.615,0.039
			c0.43,0,0.773-0.117,1.036-0.354c0.315-0.289,0.472-0.611,0.472-0.971c0-0.244-0.123-0.746-0.367-1.508l-1.625-5.049h1.455
			l1.168,3.775c0.263,0.857,0.371,1.455,0.328,1.799c0.637-1.705,1.084-3.562,1.338-5.574H21.854z"/>
		<polygon clip-path="url(#SVGID_18_)" fill="#FA8A3B" points="41.578,34.004 37.369,34.004 37.369,25.152 38.783,25.152 
			38.783,32.916 41.578,32.916 		"/>
		<path clip-path="url(#SVGID_18_)" fill="#FA8A3B" d="M36.266,34.219l-1.626-0.803c0.146-0.121,0.282-0.248,0.405-0.396
			c0.691-0.812,1.037-2.014,1.037-3.605c0-2.927-1.148-4.392-3.447-4.392c-1.128,0-2.008,0.37-2.637,1.114
			c-0.69,0.813-1.037,2.012-1.037,3.594c0,1.555,0.307,2.697,0.918,3.422c0.56,0.656,1.402,0.984,2.531,0.984
			c0.42,0,0.808-0.053,1.16-0.156l2.116,1.234L36.266,34.219z M30.994,32.232c-0.358-0.578-0.537-1.502-0.537-2.779
			c0-2.229,0.679-3.344,2.031-3.344c0.709,0,1.229,0.267,1.561,0.8c0.359,0.576,0.539,1.497,0.539,2.753
			c0,2.248-0.68,3.371-2.033,3.371C31.846,33.033,31.328,32.768,30.994,32.232"/>
		<path clip-path="url(#SVGID_18_)" fill="#FA8A3B" d="M28.345,31.551c0,0.752-0.274,1.365-0.825,1.85
			c-0.552,0.479-1.29,0.721-2.216,0.721c-0.866,0-1.705-0.275-2.519-0.828l0.381-0.758c0.699,0.35,1.334,0.523,1.901,0.523
			c0.534,0,0.95-0.119,1.251-0.354c0.303-0.236,0.483-0.564,0.483-0.982c0-0.527-0.366-0.977-1.04-1.354
			c-0.621-0.34-1.861-1.053-1.861-1.053c-0.672-0.488-1.009-1.016-1.009-1.883c0-0.717,0.251-1.297,0.753-1.737
			c0.503-0.44,1.153-0.663,1.947-0.663c0.82,0,1.568,0.22,2.242,0.657l-0.344,0.76c-0.574-0.245-1.143-0.367-1.701-0.367
			c-0.455,0-0.806,0.109-1.049,0.329c-0.246,0.217-0.397,0.497-0.397,0.836c0,0.525,0.375,0.98,1.065,1.365
			c0.629,0.34,1.898,1.066,1.898,1.066C28,30.168,28.345,30.689,28.345,31.551"/>
		<path clip-path="url(#SVGID_18_)" fill="#6A7E91" d="M43.354,22.188c-0.856-0.021-1.521,0.063-2.075,0.299
			c-0.16,0.064-0.416,0.064-0.438,0.268c0.086,0.086,0.096,0.225,0.172,0.342c0.127,0.215,0.353,0.502,0.556,0.652
			c0.225,0.171,0.448,0.342,0.684,0.491c0.418,0.258,0.889,0.407,1.296,0.664c0.235,0.149,0.47,0.341,0.706,0.502
			c0.115,0.085,0.191,0.226,0.341,0.278v-0.032c-0.075-0.099-0.095-0.236-0.17-0.343c-0.108-0.107-0.214-0.205-0.321-0.311
			c-0.311-0.417-0.695-0.779-1.111-1.08c-0.344-0.236-1.092-0.557-1.229-0.951c0,0-0.013-0.012-0.022-0.021
			c0.235-0.021,0.514-0.107,0.739-0.172c0.362-0.096,0.694-0.074,1.069-0.17c0.17-0.043,0.343-0.098,0.514-0.15v-0.096
			c-0.193-0.192-0.332-0.449-0.535-0.631c-0.545-0.471-1.145-0.93-1.765-1.315c-0.332-0.214-0.761-0.353-1.112-0.535
			c-0.129-0.063-0.343-0.096-0.417-0.202c-0.192-0.236-0.301-0.546-0.438-0.824c-0.309-0.588-0.609-1.24-0.877-1.86
			c-0.191-0.417-0.312-0.834-0.547-1.219c-1.101-1.819-2.299-2.92-4.138-4c-0.396-0.225-0.866-0.321-1.368-0.439
			c-0.27-0.012-0.535-0.032-0.803-0.042c-0.171-0.076-0.344-0.279-0.492-0.375c-0.611-0.385-2.182-1.219-2.632-0.117
			c-0.288,0.695,0.429,1.379,0.675,1.732c0.182,0.245,0.418,0.524,0.545,0.802c0.075,0.182,0.096,0.375,0.172,0.566
			c0.17,0.471,0.332,0.995,0.557,1.434c0.115,0.226,0.246,0.461,0.396,0.663c0.084,0.118,0.233,0.171,0.267,0.364
			c-0.149,0.214-0.162,0.534-0.247,0.802c-0.385,1.209-0.234,2.707,0.311,3.594c0.172,0.269,0.577,0.855,1.123,0.631
			c0.481-0.191,0.375-0.802,0.516-1.336c0.031-0.127,0.009-0.214,0.074-0.299v0.022c0.148,0.298,0.299,0.587,0.438,0.887
			c0.331,0.522,0.907,1.069,1.39,1.433c0.256,0.193,0.459,0.524,0.779,0.644v-0.033h-0.02c-0.065-0.096-0.162-0.14-0.248-0.214
			c-0.191-0.193-0.404-0.428-0.555-0.643c-0.451-0.598-0.847-1.262-1.199-1.946c-0.172-0.332-0.32-0.695-0.459-1.026
			c-0.063-0.127-0.063-0.32-0.172-0.384c-0.162,0.235-0.396,0.438-0.513,0.726c-0.204,0.461-0.226,1.027-0.301,1.616
			c-0.043,0.011-0.021,0-0.043,0.021c-0.343-0.084-0.459-0.438-0.587-0.736c-0.321-0.76-0.375-1.979-0.098-2.855
			c0.074-0.225,0.396-0.931,0.269-1.145c-0.065-0.204-0.278-0.32-0.397-0.481c-0.138-0.204-0.287-0.46-0.383-0.685
			c-0.258-0.599-0.386-1.262-0.663-1.861c-0.128-0.278-0.354-0.568-0.534-0.824c-0.203-0.288-0.43-0.492-0.589-0.833
			c-0.054-0.118-0.129-0.311-0.043-0.438c0.021-0.086,0.063-0.118,0.148-0.14c0.141-0.117,0.534,0.032,0.675,0.096
			c0.396,0.161,0.729,0.311,1.061,0.535c0.147,0.107,0.31,0.31,0.5,0.364h0.227c0.342,0.074,0.727,0.021,1.049,0.117
			c0.566,0.182,1.08,0.449,1.539,0.738c1.4,0.888,2.557,2.15,3.337,3.657c0.128,0.246,0.183,0.47,0.299,0.727
			c0.226,0.525,0.503,1.06,0.729,1.573c0.224,0.503,0.438,1.016,0.759,1.434c0.16,0.226,0.802,0.342,1.091,0.461
			c0.215,0.096,0.546,0.182,0.737,0.299c0.364,0.224,0.728,0.48,1.071,0.728C42.787,21.705,43.322,21.973,43.354,22.188"/>
		<path clip-path="url(#SVGID_18_)" fill="#6A7E91" d="M32.445,12.893c-0.181,0-0.311,0.021-0.438,0.054v0.021h0.021
			c0.086,0.171,0.235,0.29,0.34,0.438c0.086,0.171,0.162,0.342,0.248,0.514c0.01-0.011,0.021-0.021,0.021-0.021
			c0.149-0.106,0.226-0.278,0.226-0.535c-0.064-0.075-0.076-0.149-0.13-0.224C32.67,13.032,32.531,12.979,32.445,12.893"/>
		<path clip-path="url(#SVGID_18_)" fill="#FA8A3B" d="M44.373,34.002h0.221v-1.086h-0.331l-0.272,0.742l-0.293-0.742h-0.322v1.086
			h0.211v-0.824h0.013l0.308,0.824h0.16l0.309-0.824v0.824H44.373z M42.586,34.002h0.234v-0.898h0.309v-0.188h-0.861v0.188h0.318
			V34.002z"/>
	</g>
</g>
</svg>
