<?xml version="1.0"?>
<svg xmlns:rdf="http://www.w3.org/1999/02/22-rdf-syntax-ns#" xmlns="http://www.w3.org/2000/svg" xmlns:cc="http://creativecommons.org/ns#" xmlns:xlink="http://www.w3.org/1999/xlink" xmlns:dc="http://purl.org/dc/elements/1.1/" xmlns:svg="http://www.w3.org/2000/svg" id="Layer_1" xml:space="preserve" viewBox="0 0 1063.5955 1306.0063" version="1.2" y="0px" x="0px"><defs id="defs15335"><linearGradient id="linearGradient5378"><stop id="stop5380" stop-color="#686a6e" offset="0"/><stop id="stop5410" stop-color="#686a6e" offset=".5"/><stop id="stop5382" stop-color="#686a6e" stop-opacity="0" offset="1"/></linearGradient><radialGradient id="radialGradient5384" xlink:href="#linearGradient5378" gradientUnits="userSpaceOnUse" cy="-50.613" cx="486.32" gradientTransform="matrix(-.0032427 1.3444 -1.9632 -.0047353 420.64 -710.19)" r="33.141"/><radialGradient id="radialGradient5400" xlink:href="#linearGradient5378" gradientUnits="userSpaceOnUse" cy="1184.7" cx="1465.9" gradientTransform="matrix(8.294e-7 -1.3399 1.2274 7.5974e-7 11.836 3149.1)" r="33.156"/><radialGradient id="radialGradient5408" xlink:href="#linearGradient5378" gradientUnits="userSpaceOnUse" cy="1183.8" cx="513.12" gradientTransform="matrix(1.2712 .0000016299 -.0000017113 1.3346 -138.88 -396.58)" r="33.141"/><radialGradient id="radialGradient5464" gradientUnits="userSpaceOnUse" cy="158.67" cx="1467.8" gradientTransform="matrix(-1.8819 -1.4897e-7 3.9598e-7 -5.0023 4229.9 749.98)" r="136.56"><stop id="stop5460" stop-color="#b0b0b2" offset="0"/><stop id="stop5466" stop-color="#b0b0b2" offset=".5"/><stop id="stop5462" stop-color="#b0b0b2" stop-opacity="0" offset="1"/></radialGradient><radialGradient id="radialGradient5513" gradientUnits="userSpaceOnUse" cy="-208.55" cx="1459.6" gradientTransform="matrix(-1.8321 0 0 -.44989 4133.6 -148.91)" r="258.06"><stop id="stop5509" stop-color="#5d5e61" offset="0"/><stop id="stop5515" stop-color="#5d5e61" offset=".2523"/><stop id="stop5511" stop-color="#5d5e61" stop-opacity="0" offset="1"/></radialGradient><radialGradient id="radialGradient5548" gradientUnits="userSpaceOnUse" cy="86.459" cx="2509.4" gradientTransform="matrix(-1.4232 0 0 -1.0201 5040.7 35.722)" r="481"><stop id="stop5544" stop-color="#4e4f51" offset="0"/><stop id="stop5550" stop-color="#4e4f51" offset=".21944"/><stop id="stop5546" offset="1"/></radialGradient><linearGradient id="linearGradient5605" y2="976.08" gradientUnits="userSpaceOnUse" x2="663.9" y1="-210.53" x1="1375.4"><stop id="stop16022" stop-color="#282c32" offset="0"/><stop id="stop16024" offset="1"/></linearGradient><linearGradient id="linearGradient5623" y2="261.53" gradientUnits="userSpaceOnUse" x2="1157.6" gradientTransform="translate(-2.0106e-7 -.0000037977)" y1="52.281" x1="1379.4"><stop id="stop5619" stop-color="#595b5e" offset="0"/><stop id="stop5625" stop-color="#595b5e" offset=".5"/><stop id="stop5621" stop-color="#595b5e" stop-opacity="0" offset="1"/></linearGradient><linearGradient id="linearGradient5648" y2="695.1" gradientUnits="userSpaceOnUse" y1="625.3" x2="194.49" x1="194.49"><stop id="stop5733-8-1-8" stop-color="#151515" offset="0"/><stop id="stop5735-3-0-0" stop-color="#151515" offset=".60526"/><stop id="stop5731-9-2-5" stop-color="#525252" offset=".81579"/><stop id="stop5668-3-6-9" stop-color="#919192" offset="1"/></linearGradient><linearGradient id="linearGradient6174-5-6-6" y2="108.11" gradientUnits="userSpaceOnUse" x2="-16.021" gradientTransform="matrix(-1.3269 0 0 .63288 1466.2 81.774)" y1="76.362" x1="-16.021"><stop id="stop5902-6-25-2-9" stop-color="#262a2d" offset="0"/><stop id="stop5908-3-6-4-7" stop-color="#606567" offset=".12389"/><stop id="stop5910-6-2-1-8" stop-color="#262a2d" offset=".2677"/><stop id="stop5904-5-0-0-3" stop-color="#262a2d" offset="1"/></linearGradient><linearGradient id="linearGradient5776" y2="108.11" gradientUnits="userSpaceOnUse" y1="76.362" gradientTransform="matrix(-1.5245 0 0 .48233 1463.2 33.127)" x2="-16.021" x1="-16.021"><stop id="stop5902-8-1-1" stop-color="#262a2d" offset="0"/><stop id="stop5908-8-5-3" stop-color="#606567" offset=".12389"/><stop id="stop5910-3-9-0" stop-color="#262a2d" offset=".2677"/><stop id="stop5904-1-1-7" stop-color="#262a2d" offset="1"/></linearGradient><linearGradient id="linearGradient5848" y2="81.57" gradientUnits="userSpaceOnUse" y1="124.23" gradientTransform="matrix(-1.3269 0 0 -.63288 1466.2 258.63)" x2="-16.021" x1="-16.021"><stop id="stop5885" stop-color="#262a2d" offset="0"/><stop id="stop5887" stop-color="#606567" offset=".085911"/><stop id="stop5889" stop-color="#262a2d" offset=".20801"/><stop id="stop5891" stop-color="#262a2d" offset="1"/></linearGradient><filter id="filter6253-8-2-4" width="1.0372" y="-.5526" x="-.018606" height="2.1052" color-interpolation-filters="sRGB"><feGaussianBlur id="feGaussianBlur6255-8-4-5" stdDeviation="2.6581442"/></filter></defs>
<g id="layer3" transform="translate(-456.61 84.166)"><rect id="rect6243-4" style="color:#000000" transform="matrix(2.9907 0 0 1.2658 405.73 287.32)" rx="160.97" ry="5.7723" height="11.545" filter="url(#filter6253-8-2-4)" width="342.87" y="720.39" x="23.391" fill="#323232"/><path id="rect6365-7-7" d="m557.47-68.438c-35.654 0-64.344 28.69-64.344 64.344v1143.5c0 35.654 28.69 64.344 64.344 64.344h865.97c35.654 0 64.375-28.69 64.375-64.344v-1143.5c0-35.654-28.721-64.344-64.375-64.344h-865.97zm3.5948 2.4688h860.44c35.494 0 64.062 28.569 64.062 64.063v1138.3c0 35.494-28.569 64.063-64.062 64.063h-862.09c-35.494 0-64.063-28.569-64.063-64.063l1.65-1138.3c0-35.494 28.569-64.063 64.063-64.063z" fill="#dcdde0"/><path id="rect5897-7" d="m1488.4 69.96h-2.4423v15.14h1.0357c0.7311 0 1.4066-0.81371 1.4066-2.1164v-13.024z" style="color:#000000" fill="url(#linearGradient5776)"/><path id="rect5897-5-0" d="m1487.7 130.1h-1.7504v30.976h1.2189c0.2514-2.3627 1.6802-12.023 1.6802-14.54v-15.888c0-0.30359-0.5124-0.54798-1.1487-0.54798z" style="color:#000000" fill="url(#linearGradient6174-5-6-6)"/><path id="rect5897-5-0-0" d="m1487.7 210.3h-1.7504v-30.976h1.2189c0.2514 2.3627 1.6802 12.023 1.6802 14.54v15.888c0 0.30359-0.5124 0.54798-1.1487 0.54798z" style="color:#000000" fill="url(#linearGradient5848)"/><path id="rect5897-5-0-3" d="m1486 130.1v30.976h1.1053v-30.976h-1.1053z" style="color:#000000" fill="#393a3b"/><path id="rect5897-5-0-3-3" d="m1486 179.32v30.976h1.1053v-30.976h-1.1053z" style="color:#000000" fill="#444448"/><path id="rect5897-7-3" d="m1487.1 69.96h-1.1053v15.14h1.1053v-15.14z" style="color:#000000" fill="#353537"/><rect id="rect6365" fill-opacity=".24" rx="64.068" ry="64.068" height="1266.4" width="988.57" y="-59.976" x="495.35"/><path id="rect6365-7" d="m557.47-68.438c-35.654 0-64.344 28.69-64.344 64.344v1143.5c0 35.654 28.69 64.344 64.344 64.344h864.31c35.654 0 64.375-28.69 64.375-64.344v-1143.5c0-35.654-28.721-64.344-64.375-64.344h-864.31zm1.9375 2.4688h860.44c35.494 0 64.062 28.569 64.062 64.063v1138.3c0 35.494-28.569 64.063-64.062 64.063h-860.44c-35.494 0-64.062-28.569-64.062-64.063v-1138.3c0-35.494 28.569-64.063 64.062-64.063z" fill="#989aa3"/><path id="rect6365-8" d="m559.41-65.969c-35.494 0-64.062 28.569-64.062 64.062v1138.3c0 35.494 28.569 64.063 64.062 64.063h860.44c35.494 0 64.062-28.569 64.062-64.063v-1138.3c0-35.494-28.569-64.062-64.062-64.062h-860.44zm1.2187 4.4062h858c33.777 0 60.969 27.191 60.969 60.969v1133.4c0 33.777-27.192 60.969-60.969 60.969h-858c-33.777 0-60.969-27.191-60.969-60.969v-1133.4c0-33.777 27.191-60.969 60.969-60.969z" fill="#eaeaec"/><path id="rect6365-9" d="m560.62-61.563c-33.777 0-60.969 27.191-60.969 60.969v1133.4c0 14.987 5.3743 28.687 14.281 39.281-8.3061-10.426-13.281-23.653-13.281-38.094l0.01-1134c0-33.794 27.13-61 60.84-61h856.25c33.708 0 60.844 27.206 60.844 61v1134c0 14.486-4.9906 27.746-13.344 38.188 8.9584-10.608 14.344-24.34 14.344-39.375v-1133.4c-0.0001-33.777-27.192-60.969-60.969-60.969h-858z" fill-opacity=".24"/><path id="rect6365-9-4-0" d="m561.5-61c-33.708 0-60.844 27.206-60.844 61v1134c0 33.794 27.135 61 60.844 61h856.25c33.708 0 60.844-27.206 60.844-61v-1134c0-33.794-27.1-61-60.8-61h-856.25z" fill="#232427"/><path id="rect6365-9-4" d="m561.5-61c-33.708 0-60.844 27.206-60.844 61v1134c0 33.794 27.135 61 60.844 61h857.35c33.708 0 60.844-27.206 60.844-61v-1134c0.1-33.794-25.1-61-58.8-61h-859.29zm0.75 1.3125h857.63c33.642 0 58.785 27.175 58.785 60.906v1131.9c0 33.731-27.077 60.906-60.719 60.906h-855.7c-33.642 0-60.719-27.175-60.719-60.906v-1131.9c0-33.731 27.077-60.906 60.719-60.906z" fill="#a6a7a7"/><rect id="rect6365-9-4-8" rx="47.961" ry="47.961" height="1239.9" width="961.99" y="-52.472" x="507.41" fill="url(#radialGradient5548)"/><path id="path5376" d="m557.47-68.438c-35.654 0-64.344 28.69-64.344 64.344l2.2188 2.1875c0-35.494 28.569-64.063 64.062-64.063h24.084v-2.4688h-26.022z" fill="url(#radialGradient5384)"/><path id="path5374" d="m1419.8-65.969c35.494 0 64.062 28.569 64.062 64.063v62.921h2.25v-65.108c0-35.654-28.721-64.344-64.375-64.344h-451.75v2.4688h449.82-0.0002z" fill="url(#radialGradient5513)"/><path id="path5372" d="m1483.9 1136.4c0 35.494-28.569 64.062-64.062 64.063l1.9374 3.25c35.654 0 64.375-28.69 64.375-64.344l-2.25-2.9688z" fill="url(#radialGradient5400)"/><path id="rect6365-7-5" d="m493.12 1139.4c0 35.654 28.69 64.344 64.344 64.344l1.9375-3.25c-35.494 0-64.062-28.569-64.062-64.063l-2.2188 2.9688z" fill="url(#radialGradient5408)"/><path id="path5358" style="color:#000000" d="m600.39-84.166z"/><path id="path5456" d="m1210.8-65.969v4.4062h207.84c33.777 0 60.969 27.191 60.969 60.969v639.8h4.3124v-641.11c0-35.494-28.569-64.063-64.062-64.063h-209.06z" fill="url(#radialGradient5464)"/><path id="rect5552" fill="url(#linearGradient5623)" d="m603.44 52.281v1031h776v-1031h-776zm4 3h768v1024h-768v-1024z"/><rect id="rect5552-6" height="1024" width="768" y="55.287" x="607.42" fill="url(#linearGradient5605)"/><path id="path5662-5" d="m229.39 660.2a34.898 34.898 0 1 1 -69.796 0 34.898 34.898 0 1 1 69.796 0z" style="color:#000000" fill="url(#linearGradient5648)" transform="matrix(.81811 0 0 .81811 832.52 603.39)"/><path id="path5662-4-0" d="m1019.2 1143.5c0-15.215-12.334-27.548-27.548-27.548-15.215 0-27.548 12.334-27.548 27.548 0 2.6334 0.3694 5.1805 1.0594 7.5922 21.095 8.1265 36.758 7.9647 52.99-0.043 0.6822-2.3991 1.0473-4.9316 1.0473-7.5494z" style="color:#000000" fill="#070707"/><path id="rect5742-4" d="m986.12 1133c-2.4049 0-4.3462 1.9413-4.3462 4.3462v11.351c0 2.4049 1.9413 4.3462 4.3462 4.3462h11.351c2.4049 0 4.3462-1.9413 4.3462-4.3462v-11.351c0-2.4049-1.9413-4.3462-4.3462-4.3462h-11.351zm0.3835 1.6619h10.584c1.6957 0 3.0679 1.3721 3.0679 3.0679v10.584c0 1.6957-1.3722 3.0423-3.0679 3.0423h-10.584c-1.6958 0-3.0424-1.3466-3.0424-3.0423v-10.584c0-1.6958 1.3466-3.0679 3.0424-3.0679z" style="color:#000000" fill="#ccced1"/><path id="rect5685" d="m1332-71.932h49.263c0.7581 0 1.3685 0.64593 1.3685 1.4483v1.5517h-52v-1.5517c0-0.80234 0.6103-1.4483 1.3684-1.4483z" fill="#141414"/><path id="rect5685-3" d="m1332-71.938c-0.7581 0-1.375 0.6664-1.375 1.4688v0.09375c0 0.15713 0.051 0.29605 0.094 0.4375 0.178-0.58086 0.6716-1 1.2812-1h49.25c0.611 0 1.1356 0.41721 1.3126 1 0.043-0.14038 0.062-0.28175 0.062-0.4375v-0.09375c0-0.80234-0.6168-1.4688-1.375-1.4688h-49.25z" fill="#404040"/><path id="rect5685-3-2" d="m1330.7-68.932v-1.5625c0-0.15713 0.051-0.29605 0.094-0.4375 0.178 0.58086 0.6716 1 1.2812 1h49.25c0.611 0 1.1356-0.41721 1.3126-1 0.043 0.14038 0.062 0.28175 0.062 0.4375v1.5625h-52z" fill="#404040"/></g><metadata><rdf:RDF><cc:Work><dc:format>image/svg+xml</dc:format><dc:type rdf:resource="http://purl.org/dc/dcmitype/StillImage"/><cc:license rdf:resource="http://creativecommons.org/licenses/publicdomain/"/><dc:publisher><cc:Agent rdf:about="http://openclipart.org/"><dc:title>Openclipart</dc:title></cc:Agent></dc:publisher><dc:title>iPad</dc:title><dc:date>2010-03-03T09:44:05</dc:date><dc:description>Realistic iPad</dc:description><dc:source>http://openclipart.org/detail/29785/ipad-by-benbois</dc:source><dc:creator><cc:Agent><dc:title>BenBois</dc:title></cc:Agent></dc:creator><dc:subject><rdf:Bag><rdf:li>clip art</rdf:li><rdf:li>clipart</rdf:li><rdf:li>iPad realistic</rdf:li></rdf:Bag></dc:subject></cc:Work><cc:License rdf:about="http://creativecommons.org/licenses/publicdomain/"><cc:permits rdf:resource="http://creativecommons.org/ns#Reproduction"/><cc:permits rdf:resource="http://creativecommons.org/ns#Distribution"/><cc:permits rdf:resource="http://creativecommons.org/ns#DerivativeWorks"/></cc:License></rdf:RDF></metadata></svg>
