<?xml version="1.0" encoding="utf-8"?>
<!-- Generator: Adobe Illustrator 16.0.4, SVG Export Plug-In . SVG Version: 6.00 Build 0)  -->
<!DOCTYPE svg PUBLIC "-//W3C//DTD SVG 1.1//EN" "http://www.w3.org/Graphics/SVG/1.1/DTD/svg11.dtd">
<svg version="1.1" id="Layer_1" xmlns="http://www.w3.org/2000/svg" xmlns:xlink="http://www.w3.org/1999/xlink" x="0px" y="0px"
	 width="528.244px" height="298.474px" viewBox="0 0 528.244 298.474" enable-background="new 0 0 528.244 298.474"
	 xml:space="preserve">
<g>
	<script  type="text/ecmascript">
		<![CDATA[
  	var svgNS = "http://www.w3.org/2000/svg";

	function init(evt)
	{
		if ( window.svgDocument == null )
		{
			svgDocument = evt.target.ownerDocument;
		}
		addRotateTransform('gear-1', 12, 1);
		addRotateTransform('gear-2', 16, -1);
		addRotateTransform('gear-3', 16, -1);
		addRotateTransform('gear-4', 4, 1);
	}

	function addRotateTransform(target_id, speed, direction)
	{
		var element_to_rotate = svgDocument.getElementById(target_id);
		var my_transform = svgDocument.createElementNS(svgNS, "animateTransform");

		var bb = element_to_rotate.getBBox();
		var cx = bb.x + bb.width/2;
		var cy = bb.y + bb.height/2;

		my_transform.setAttributeNS(null, "attributeName", "transform");
		my_transform.setAttributeNS(null, "attributeType", "XML");
		my_transform.setAttributeNS(null, "type", "rotate");
		my_transform.setAttributeNS(null, "dur", speed + "s");
		my_transform.setAttributeNS(null, "repeatCount", "indefinite");
		my_transform.setAttributeNS(null, "from", "0 "+cx+" "+cy);
		my_transform.setAttributeNS(null, "to", 360*direction+" "+cx+" "+cy);

		element_to_rotate.appendChild(my_transform);
		my_transform.beginElement();
	}
  
			]]>
	</script>
	<g transform="translate(132, 84)">
		<path id="gear-3" d="M116.365,35.798l0.58-0.022l2.617,0.368l3.209,0.998v3.003l-3.209,0.999l-2.617,0.367l-0.58-0.022
			l-0.256,3.883l0.578,0.053l2.549,0.707l3.052,1.409l-0.392,2.977l-3.313,0.57l-2.644,0.024l-0.571-0.099l-0.759,3.816l0.564,0.128
			l2.434,1.033l2.843,1.795l-0.777,2.901l-3.358,0.133l-2.625-0.322l-0.554-0.171l-1.251,3.684l0.545,0.201l2.277,1.342l2.583,2.151
			l-1.149,2.774l-3.347-0.308l-2.56-0.661l-0.527-0.243l-1.721,3.49l0.514,0.271l2.083,1.628l2.28,2.47l-1.502,2.6l-3.278-0.74
			l-2.451-0.99l-0.491-0.31l-2.16,3.235l0.473,0.335l1.854,1.886l1.938,2.746l-1.828,2.383l-3.153-1.162l-2.303-1.302l-0.445-0.371
			L96.95,88.36l0.426,0.394l1.591,2.112l1.562,2.975l-2.122,2.123l-2.976-1.562L93.32,92.81l-0.395-0.426l-2.925,2.565l0.371,0.446
			l1.301,2.302l1.162,3.153l-2.382,1.828l-2.746-1.938l-1.887-1.854l-0.334-0.473l-3.235,2.161l0.31,0.491l0.989,2.45l0.741,3.279
			l-2.6,1.501l-2.471-2.28l-1.628-2.082l-0.27-0.514l-3.49,1.72l0.243,0.527l0.66,2.561l0.308,3.347l-2.774,1.148l-2.15-2.583
			l-1.342-2.277l-0.201-0.544l-3.684,1.251l0.17,0.554l0.322,2.624l-0.133,3.359l-2.9,0.776l-1.795-2.842l-1.033-2.434l-0.129-0.565
			l-3.815,0.759l0.098,0.571l-0.024,2.644l-0.569,3.313l-2.978,0.392l-1.408-3.052l-0.707-2.548l-0.053-0.578l-3.883,0.255
			l0.022,0.58l-0.368,2.617l-0.999,3.21h-3.002l-0.999-3.21l-0.368-2.617l0.022-0.58l-3.883-0.255l-0.053,0.578l-0.707,2.548
			l-1.408,3.052l-2.978-0.392l-0.569-3.313l-0.024-2.644l0.098-0.571l-3.815-0.759l-0.129,0.565l-1.033,2.434l-1.795,2.842
			l-2.9-0.776l-0.133-3.359l0.322-2.624l0.17-0.554l-3.684-1.251l-0.201,0.544l-1.342,2.277l-2.15,2.583l-2.774-1.148l0.308-3.347
			l0.66-2.561l0.243-0.527l-3.489-1.72l-0.271,0.514l-1.628,2.082l-2.47,2.28l-2.6-1.501l0.741-3.279l0.99-2.45l0.309-0.491
			l-3.235-2.161l-0.335,0.473l-1.886,1.854l-2.746,1.938l-2.382-1.828l1.162-3.153l1.301-2.302l0.371-0.446l-2.925-2.565
			l-0.394,0.426l-2.112,1.592l-2.975,1.562l-2.123-2.123l1.563-2.975l1.591-2.112l0.426-0.394l-2.565-2.926l-0.446,0.371
			l-2.302,1.302l-3.154,1.162l-1.828-2.383l1.939-2.746l1.853-1.886l0.473-0.335l-2.161-3.235l-0.491,0.31l-2.451,0.99l-3.279,0.74
			l-1.501-2.6l2.28-2.47l2.083-1.628l0.513-0.271l-1.72-3.49l-0.527,0.243l-2.56,0.661l-3.347,0.308l-1.149-2.774l2.583-2.151
			l2.278-1.342l0.544-0.201l-1.251-3.684l-0.554,0.171l-2.624,0.322l-3.359-0.133l-0.777-2.901l2.842-1.795l2.434-1.033l0.565-0.128
			l-0.759-3.816l-0.571,0.099l-2.644-0.024l-3.313-0.57l-0.392-2.977l3.052-1.409l2.548-0.707l0.578-0.053l-0.255-3.883l-0.58,0.022
			l-2.617-0.367l-3.21-0.999v-3.003l3.21-0.998l2.617-0.368l0.58,0.022l0.255-3.883l-0.578-0.053l-2.548-0.707l-3.052-1.409
			l0.392-2.977l3.313-0.57l2.644-0.024l0.571,0.099l0.759-3.816l-0.565-0.128l-2.434-1.033l-2.842-1.795l0.777-2.901l3.359-0.133
			l2.624,0.322l0.554,0.171l1.251-3.684l-0.544-0.201l-2.278-1.342l-2.583-2.151l1.149-2.774l3.347,0.308l2.56,0.661l0.527,0.243
			l1.72-3.49l-0.513-0.271l-2.083-1.628l-2.28-2.47l1.501-2.6l3.279,0.74l2.451,0.99l0.491,0.309l2.161-3.234l-0.473-0.335
			l-1.853-1.886l-1.939-2.746l1.828-2.383l3.154,1.162l2.302,1.302l0.446,0.37l2.565-2.925l-0.426-0.394l-1.591-2.112l-1.563-2.975
			l2.123-2.123l2.975,1.562l2.112,1.591l0.394,0.427l2.925-2.565l-0.371-0.446l-1.301-2.302l-1.162-3.154l2.382-1.827l2.746,1.938
			l1.886,1.854l0.335,0.473l3.235-2.161L3.858-23.78l-0.99-2.45L2.127-29.51l2.6-1.501l2.47,2.28l1.628,2.083l0.271,0.513
			l3.489-1.72l-0.243-0.527l-0.66-2.561l-0.308-3.347l2.774-1.148l2.15,2.583l1.342,2.277l0.201,0.544l3.684-1.251l-0.17-0.554
			l-0.322-2.624l0.133-3.359l2.9-0.776l1.795,2.842l1.033,2.434l0.129,0.565l3.815-0.759l-0.098-0.571l0.024-2.644l0.569-3.313
			l2.978-0.392l1.408,3.052l0.707,2.548l0.053,0.578l3.883-0.255l-0.022-0.58l0.368-2.617l0.999-3.21h3.002l0.999,3.21l0.368,2.617
			l-0.022,0.58l3.883,0.255l0.053-0.578l0.707-2.548l1.408-3.052l2.978,0.392l0.569,3.313l0.024,2.644l-0.098,0.571l3.815,0.759
			l0.129-0.565l1.033-2.434l1.795-2.842l2.9,0.776l0.133,3.359l-0.322,2.624l-0.17,0.554l3.684,1.251l0.201-0.544l1.342-2.277
			l2.15-2.583l2.774,1.148l-0.308,3.347l-0.66,2.561l-0.243,0.527l3.489,1.72l0.271-0.513l1.628-2.083l2.471-2.28l2.6,1.501
			L83.55-26.23l-0.989,2.45l-0.31,0.491l3.235,2.161l0.334-0.473l1.887-1.854l2.746-1.938l2.382,1.827l-1.162,3.154l-1.301,2.302
			l-0.371,0.446l2.925,2.565l0.395-0.427l2.111-1.591l2.976-1.562l2.122,2.123l-1.562,2.975l-1.591,2.112l-0.426,0.394l2.565,2.925
			l0.445-0.37l2.303-1.302l3.153-1.162l1.828,2.383l-1.938,2.746l-1.854,1.886l-0.473,0.335l2.16,3.234l0.491-0.309l2.451-0.99
			l3.278-0.74l1.502,2.6l-2.28,2.47L108.5,4.259l-0.514,0.271l1.721,3.49l0.527-0.243l2.56-0.661l3.347-0.308l1.149,2.774
			l-2.583,2.151l-2.277,1.342l-0.545,0.201l1.251,3.684l0.554-0.171l2.625-0.322l3.358,0.133l0.777,2.901l-2.843,1.795l-2.434,1.033
			l-0.564,0.128l0.759,3.816l0.571-0.099l2.644,0.024l3.313,0.57l0.392,2.977l-3.052,1.409l-2.549,0.707l-0.578,0.053
			L116.365,35.798z		">
<animateTransform  type="rotate" fill="remove" restart="always" calcMode="linear" additive="replace" accumulate="none" to="-360 0 0" from="0 0 0" repeatCount="indefinite" dur="16s" attributeType="XML" attributeName="transform">
				</animateTransform>
		</path>
	</g>
	<g transform="translate(176.5, 173.5)">
		<path id="gear-4" d="M58.975,36.469l2.51-0.346l0.66,0.027l3.312,1.267v2.452l-3.312,1.267l-0.66,0.027l-2.51-0.346l-1.024,3.826
			l2.346,0.954l0.558,0.354l2.235,2.753l-1.226,2.124l-3.502-0.56l-0.586-0.307l-2-1.554l-2.801,2.801l1.555,1.999l0.306,0.586
			l0.56,3.502l-2.123,1.227l-2.754-2.235l-0.354-0.558l-0.955-2.347l-3.826,1.025l0.346,2.509l-0.026,0.66l-1.267,3.312h-2.453
			l-1.267-3.312l-0.026-0.66l0.346-2.509l-3.826-1.025l-0.955,2.347L35.9,56.288l-2.754,2.235l-2.123-1.227l0.56-3.502l0.306-0.586
			l1.555-1.999l-2.801-2.801l-2,1.554l-0.586,0.307l-3.502,0.56l-1.226-2.124l2.235-2.753l0.558-0.354l2.346-0.954l-1.024-3.826
			l-2.51,0.346l-0.66-0.027l-3.312-1.267v-2.452l3.312-1.267l0.66-0.027l2.51,0.346l1.024-3.825l-2.346-0.955l-0.558-0.354
			l-2.235-2.753l1.226-2.124l3.502,0.56l0.586,0.307l2,1.554l2.801-2.801l-1.555-1.999l-0.306-0.586l-0.56-3.502l2.123-1.227
			l2.754,2.235l0.354,0.558l0.955,2.347l3.826-1.025l-0.346-2.509l0.026-0.66l1.267-3.312h2.453l1.267,3.312l0.026,0.66
			l-0.346,2.509l3.826,1.025l0.955-2.347l0.354-0.558l2.754-2.235l2.123,1.227l-0.56,3.502l-0.306,0.586l-1.555,1.999l2.801,2.801
			l2-1.554l0.586-0.307l3.502-0.56l1.226,2.124l-2.235,2.753l-0.558,0.354l-2.346,0.955L58.975,36.469z		">
<animateTransform  type="rotate" fill="remove" restart="always" calcMode="linear" additive="replace" accumulate="none" to="360 0 0" from="0 0 0" repeatCount="indefinite" dur="4s" attributeType="XML" attributeName="transform">
				</animateTransform>
		</path>
		<circle fill="#FFFFFF" stroke="#784F33" cx="43.209" cy="38.644" r="10"/>
	</g>
	<g transform="translate(-9.5, 106)">
		<path id="gear-1" d="M102.709,48.543l-3.406,0.601l-1.312,5.562l0.094,2.844l0.625,2.25l-5.531,2l-0.938-2.125l-1.75-2.25
			l-4.594-3.406l-3,1.75l0.656,5.656l1.062,2.656l1.375,1.875l-4.5,3.781l-1.625-1.656l-2.438-1.5l-5.438-1.656l-2.25,2.656
			l2.562,5.094l1.906,2.125l1.938,1.312l-2.969,5.094l-2.094-1l-2.781-0.594l-5.688,0.312l-1.188,3.281l4.156,3.906l2.5,1.344
			l2.25,0.562l-1,5.812l-2.344-0.25l-2.812,0.406l-5.219,2.25v3.469l5.219,2.281l2.812,0.375l2.344-0.219l1,5.781l-2.25,0.594
			l-2.5,1.312l-4.156,3.938l1.188,3.25l5.688,0.344l2.781-0.594l2.094-1.031l2.969,5.125l-1.938,1.281l-1.906,2.125l-2.562,5.094
			l2.25,2.656l5.438-1.625l2.438-1.5l1.625-1.688l4.5,3.812l-1.375,1.875l-1.062,2.625l-0.656,5.688l3,1.719l4.594-3.406l1.75-2.219
			l0.938-2.125l5.531,2l-0.625,2.25l-0.094,2.844l1.312,5.531l3.406,0.594l3.156-4.75l0.875-2.719l0.156-2.312h5.906l0.156,2.312
			l0.875,2.719l3.156,4.75l3.406-0.594l1.312-5.531l-0.094-2.844l-0.625-2.25l5.531-2l0.938,2.125l1.75,2.219l4.594,3.406l3-1.719
			l-0.656-5.688l-1.062-2.625l-1.375-1.875l4.531-3.812l1.625,1.688l2.406,1.5l5.469,1.625l2.219-2.656l-2.562-5.094l-1.906-2.125
			l-1.906-1.281l2.938-5.125l2.094,1.031l2.781,0.594l5.688-0.344l1.188-3.25l-4.156-3.938l-2.5-1.312l-2.25-0.594l1.031-5.781
			l2.312,0.219l2.812-0.375l5.219-2.281v-3.469l-5.219-2.25l-2.812-0.406l-2.312,0.25l-1.031-5.812l2.25-0.562l2.5-1.344
			l4.156-3.906l-1.188-3.281l-5.688-0.312l-2.781,0.594l-2.094,1l-2.938-5.094l1.906-1.312l1.906-2.125l2.562-5.094l-2.219-2.656
			l-5.469,1.656l-2.406,1.5l-1.625,1.656l-4.531-3.781l1.375-1.875l1.062-2.656l0.656-5.656l-3-1.75l-4.594,3.406l-1.75,2.25
			l-0.938,2.125l-5.531-2l0.625-2.25l0.094-2.844l-1.312-5.562l-3.406-0.594l-3.156,4.781l-0.875,2.688l-0.156,2.312h-5.906
			l-0.156-2.312l-0.875-2.688l-3.156-4.781V48.543z M106.365,65.175v20.75c-4.659,1.239-8.323,4.903-9.562,9.562h-20.75
			C77.69,79.51,90.388,66.812,106.365,65.175z M113.365,65.175c15.977,1.637,28.675,14.335,30.312,30.312h-20.781
			c-1.236-4.646-4.891-8.282-9.531-9.531V65.175z M109.834,92.456c3.59,0,6.5,2.91,6.5,6.5s-2.91,6.5-6.5,6.5s-6.5-2.91-6.5-6.5
			S106.244,92.456,109.834,92.456z M76.053,102.487h20.781c1.249,4.641,4.885,8.295,9.531,9.531V132.8
			C90.388,131.162,77.69,118.464,76.053,102.487z M122.865,102.487h20.812c-1.637,15.977-14.335,28.675-30.312,30.312v-20.812
			C117.994,110.741,121.619,107.115,122.865,102.487z		">
<animateTransform  type="rotate" fill="remove" restart="always" calcMode="linear" additive="replace" accumulate="none" to="360 66.640625 60.32499885559082" from="0 66.640625 60.32499885559082" repeatCount="indefinite" dur="12s" attributeType="XML" attributeName="transform">
				</animateTransform>
		</path>
	</g>
	<g transform="translate(132, 84)">
		<path id="gear-2" d="M99.051,34.146l1.402-0.113l3.74,0.613l5.199,2.175v3.644l-5.199,2.175l-3.74,0.613l-1.402-0.113
			l-0.738,5.612l1.383,0.254l3.455,1.561l4.459,3.446l-0.943,3.52l-5.585,0.756l-3.771-0.376l-1.326-0.473l-2.166,5.23l1.271,0.604
			l2.933,2.4l3.414,4.483l-1.82,3.156l-5.59-0.717l-3.547-1.34l-1.158-0.799l-3.445,4.491l1.072,0.912l2.211,3.078l2.138,5.214
			l-2.577,2.577l-5.214-2.139l-3.078-2.211l-0.911-1.071l-4.492,3.445l0.799,1.158l1.341,3.546l0.716,5.59l-3.156,1.821
			l-4.482-3.414l-2.401-2.933l-0.603-1.271l-5.231,2.166l0.474,1.326l0.375,3.771l-0.756,5.585l-3.519,0.943l-3.447-4.459
			l-1.56-3.454l-0.254-1.384l-5.612,0.739l0.112,1.401l-0.612,3.741l-2.175,5.198h-3.645l-2.175-5.198L38.6,95.887l0.112-1.401
			L33.1,93.746l-0.254,1.384l-1.56,3.454l-3.447,4.459L24.32,102.1l-0.756-5.585l0.375-3.771l0.474-1.326l-5.231-2.166l-0.603,1.271
			l-2.401,2.933l-4.482,3.414l-3.156-1.821l0.716-5.59l1.341-3.546l0.799-1.158L6.903,81.31l-0.912,1.071l-3.078,2.211l-5.214,2.139
			l-2.577-2.577l2.138-5.214l2.211-3.078l1.072-0.912l-3.446-4.491l-1.158,0.799l-3.546,1.34l-5.59,0.717l-1.821-3.156l3.414-4.483
			l2.933-2.4L-7.4,62.67l-2.166-5.23l-1.326,0.473l-3.771,0.376l-5.585-0.756l-0.943-3.52l4.459-3.446l3.454-1.561l1.384-0.254
			l-0.739-5.612l-1.402,0.113l-3.741-0.613l-5.198-2.175v-3.644l5.198-2.175l3.741-0.613l1.402,0.113l0.739-5.612l-1.384-0.254
			l-3.454-1.561l-4.459-3.446l0.943-3.52l5.585-0.756l3.771,0.376l1.326,0.473l2.166-5.23l-1.271-0.604l-2.933-2.4l-3.414-4.483
			l1.821-3.156l5.59,0.717l3.546,1.34l1.158,0.799l3.446-4.491l-1.072-0.912L-2.74-1.653l-2.138-5.214l2.577-2.577l5.214,2.139
			l3.078,2.211l0.912,1.072l4.492-3.446l-0.8-1.158l-1.34-3.546l-0.716-5.59l3.156-1.821l4.482,3.414l2.401,2.933l0.603,1.271
			l5.231-2.166l-0.474-1.326l-0.375-3.771l0.756-5.585l3.519-0.943l3.447,4.459l1.56,3.454L33.1-16.46l5.612-0.739L38.6-18.601
			l0.612-3.741l2.175-5.198h3.645l2.175,5.198l0.612,3.741l-0.112,1.401l5.612,0.739l0.254-1.384l1.56-3.454l3.447-4.459
			l3.519,0.943l0.756,5.585l-0.375,3.771l-0.474,1.326l5.231,2.166l0.603-1.271l2.401-2.933l4.482-3.414l3.156,1.821l-0.716,5.59
			l-1.341,3.546l-0.799,1.158l4.492,3.446l0.911-1.072l3.078-2.211l5.214-2.139l2.577,2.577l-2.138,5.214l-2.211,3.078l-1.072,0.912
			l3.445,4.491l1.158-0.799l3.547-1.34l5.59-0.717l1.82,3.156l-3.414,4.483l-2.933,2.4l-1.271,0.604l2.166,5.23l1.326-0.473
			l3.771-0.376l5.585,0.756l0.943,3.52l-4.459,3.446l-3.455,1.561l-1.383,0.254L99.051,34.146z		">
<animateTransform  type="rotate" fill="remove" restart="always" calcMode="linear" additive="replace" accumulate="none" to="-360 -0.00000762939453125 0" from="0 -0.00000762939453125 0" repeatCount="indefinite" dur="16s" attributeType="XML" attributeName="transform">
				</animateTransform>
		</path>
		<circle fill="#FFFFFF" stroke="#784F33" cx="43.209" cy="38.644" r="5"/>
	</g>
</g>
<g>
	<script  type="text/ecmascript">
		<![CDATA[
  	var svgNS = "http://www.w3.org/2000/svg";

	function init(evt)
	{
		if ( window.svgDocument == null )
		{
			svgDocument = evt.target.ownerDocument;
		}
		addRotateTransform('gear-1', 12, 1);
		addRotateTransform('gear-2', 16, -1);
		addRotateTransform('gear-3', 16, -1);
		addRotateTransform('gear-4', 4, 1);
	}

	function addRotateTransform(target_id, speed, direction)
	{
		var element_to_rotate = svgDocument.getElementById(target_id);
		var my_transform = svgDocument.createElementNS(svgNS, "animateTransform");

		var bb = element_to_rotate.getBBox();
		var cx = bb.x + bb.width/2;
		var cy = bb.y + bb.height/2;

		my_transform.setAttributeNS(null, "attributeName", "transform");
		my_transform.setAttributeNS(null, "attributeType", "XML");
		my_transform.setAttributeNS(null, "type", "rotate");
		my_transform.setAttributeNS(null, "dur", speed + "s");
		my_transform.setAttributeNS(null, "repeatCount", "indefinite");
		my_transform.setAttributeNS(null, "from", "0 "+cx+" "+cy);
		my_transform.setAttributeNS(null, "to", 360*direction+" "+cx+" "+cy);

		element_to_rotate.appendChild(my_transform);
		my_transform.beginElement();
	}
  
			]]>
	</script>
	<g transform="translate(132, 84)">
		<path id="gear-3_1_" d="M300.798,35.798l0.58-0.022l2.617,0.368l3.209,0.998v3.003l-3.209,0.999l-2.617,0.367l-0.58-0.022
			l-0.256,3.883l0.578,0.053l2.549,0.707l3.052,1.409l-0.392,2.977l-3.313,0.57l-2.644,0.024l-0.571-0.099l-0.759,3.816l0.564,0.128
			l2.434,1.033l2.843,1.795l-0.777,2.901l-3.358,0.133l-2.625-0.322l-0.554-0.171l-1.251,3.684l0.545,0.201l2.277,1.342l2.583,2.151
			l-1.149,2.774l-3.347-0.308l-2.56-0.661l-0.527-0.243l-1.721,3.49l0.514,0.271l2.083,1.628l2.28,2.47l-1.502,2.6l-3.278-0.74
			l-2.451-0.99l-0.491-0.31l-2.16,3.235l0.473,0.335l1.854,1.886l1.938,2.746l-1.828,2.383l-3.153-1.162l-2.303-1.302l-0.445-0.371
			l-2.565,2.926l0.426,0.394l1.591,2.112l1.562,2.975l-2.122,2.123l-2.976-1.562l-2.111-1.592l-0.395-0.426l-2.925,2.565
			l0.371,0.446l1.301,2.302l1.162,3.153l-2.382,1.828l-2.746-1.938l-1.887-1.854l-0.334-0.473l-3.235,2.161l0.31,0.491l0.989,2.45
			l0.741,3.279l-2.6,1.501l-2.471-2.28l-1.628-2.082l-0.27-0.514l-3.49,1.72l0.243,0.527l0.66,2.561l0.308,3.347l-2.774,1.148
			l-2.15-2.583l-1.342-2.277l-0.201-0.544l-3.684,1.251l0.17,0.554l0.322,2.624l-0.133,3.359l-2.9,0.776l-1.795-2.842l-1.033-2.434
			l-0.129-0.565l-3.815,0.759l0.098,0.571l-0.024,2.644l-0.569,3.313l-2.978,0.392l-1.408-3.052l-0.707-2.548l-0.053-0.578
			l-3.883,0.255l0.022,0.58l-0.368,2.617l-0.999,3.21h-3.002l-0.999-3.21l-0.368-2.617l0.022-0.58l-3.883-0.255l-0.053,0.578
			l-0.707,2.548l-1.408,3.052l-2.978-0.392l-0.569-3.313l-0.024-2.644l0.098-0.571l-3.815-0.759l-0.129,0.565l-1.033,2.434
			l-1.795,2.842l-2.9-0.776l-0.133-3.359l0.322-2.624l0.17-0.554l-3.684-1.251l-0.201,0.544l-1.342,2.277l-2.15,2.583l-2.774-1.148
			l0.308-3.347l0.66-2.561l0.243-0.527l-3.489-1.72l-0.271,0.514l-1.628,2.082l-2.471,2.28l-2.6-1.501l0.741-3.279l0.989-2.45
			l0.31-0.491l-3.235-2.161l-0.334,0.473l-1.887,1.854l-2.746,1.938l-2.382-1.828l1.162-3.153l1.301-2.302l0.371-0.446l-2.925-2.565
			l-0.395,0.426l-2.111,1.592l-2.976,1.562l-2.122-2.123l1.562-2.975l1.591-2.112l0.426-0.394l-2.565-2.926l-0.445,0.371
			l-2.303,1.302l-3.153,1.162l-1.828-2.383l1.938-2.746l1.854-1.886l0.473-0.335l-2.16-3.235l-0.491,0.31l-2.451,0.99l-3.278,0.74
			l-1.502-2.6l2.28-2.47l2.083-1.628l0.514-0.271l-1.721-3.49l-0.527,0.243l-2.56,0.661l-3.347,0.308l-1.149-2.774l2.583-2.151
			l2.277-1.342l0.545-0.201l-1.251-3.684l-0.554,0.171l-2.625,0.322l-3.358-0.133l-0.777-2.901l2.843-1.795l2.434-1.033l0.564-0.128
			l-0.759-3.816l-0.571,0.099l-2.644-0.024l-3.313-0.57l-0.392-2.977l3.052-1.409l2.549-0.707l0.578-0.053l-0.256-3.883l-0.58,0.022
			l-2.617-0.367l-3.209-0.999v-3.003l3.209-0.998l2.617-0.368l0.58,0.022l0.256-3.883l-0.578-0.053l-2.549-0.707l-3.052-1.409
			l0.392-2.977l3.313-0.57l2.644-0.024l0.571,0.099l0.759-3.816l-0.564-0.128l-2.434-1.033l-2.843-1.795l0.777-2.901l3.358-0.133
			l2.625,0.322l0.554,0.171l1.251-3.684l-0.545-0.201l-2.277-1.342l-2.583-2.151l1.149-2.774l3.347,0.308l2.56,0.661l0.527,0.243
			l1.721-3.49l-0.514-0.271l-2.083-1.628l-2.28-2.47l1.502-2.6l3.278,0.74l2.451,0.99l0.491,0.309l2.16-3.234l-0.473-0.335
			l-1.854-1.886l-1.938-2.746l1.828-2.383l3.153,1.162l2.303,1.302l0.445,0.37l2.565-2.925l-0.426-0.394l-1.591-2.112l-1.562-2.975
			l2.122-2.123l2.976,1.562l2.111,1.591l0.395,0.427l2.925-2.565l-0.371-0.446l-1.301-2.302l-1.162-3.154l2.382-1.827l2.746,1.938
			l1.887,1.854l0.334,0.473l3.235-2.161l-0.31-0.491l-0.989-2.45l-0.741-3.279l2.6-1.501l2.471,2.28l1.628,2.083l0.271,0.513
			l3.489-1.72l-0.243-0.527l-0.66-2.561l-0.308-3.347l2.774-1.148l2.15,2.583l1.342,2.277l0.201,0.544l3.684-1.251l-0.17-0.554
			l-0.322-2.624l0.133-3.359l2.9-0.776l1.795,2.842l1.033,2.434l0.129,0.565l3.815-0.759l-0.098-0.571l0.024-2.644l0.569-3.313
			l2.978-0.392l1.408,3.052l0.707,2.548l0.053,0.578l3.883-0.255l-0.022-0.58l0.368-2.617l0.999-3.21h3.002l0.999,3.21l0.368,2.617
			l-0.022,0.58l3.883,0.255l0.053-0.578l0.707-2.548l1.408-3.052l2.978,0.392l0.569,3.313l0.024,2.644l-0.098,0.571l3.815,0.759
			l0.129-0.565l1.033-2.434l1.795-2.842l2.9,0.776l0.133,3.359l-0.322,2.624l-0.17,0.554l3.684,1.251l0.201-0.544l1.342-2.277
			l2.15-2.583l2.774,1.148l-0.308,3.347l-0.66,2.561l-0.243,0.527l3.489,1.72l0.271-0.513l1.628-2.083l2.471-2.28l2.6,1.501
			l-0.741,3.279l-0.989,2.45l-0.31,0.491l3.235,2.161l0.334-0.473l1.887-1.854l2.746-1.938l2.382,1.827l-1.162,3.154l-1.301,2.302
			l-0.371,0.446l2.925,2.565l0.395-0.427l2.111-1.591l2.976-1.562l2.122,2.123l-1.562,2.975l-1.591,2.112l-0.426,0.394l2.565,2.925
			l0.445-0.37l2.303-1.302l3.153-1.162l1.828,2.383l-1.938,2.746l-1.854,1.886l-0.473,0.335l2.16,3.234l0.491-0.309l2.451-0.99
			l3.278-0.74l1.502,2.6l-2.28,2.47l-2.083,1.628l-0.514,0.271l1.721,3.49l0.527-0.243l2.56-0.661l3.347-0.308l1.149,2.774
			l-2.583,2.151l-2.277,1.342l-0.545,0.201l1.251,3.684l0.554-0.171l2.625-0.322l3.358,0.133l0.777,2.901l-2.843,1.795l-2.434,1.033
			l-0.564,0.128l0.759,3.816l0.571-0.099l2.644,0.024l3.313,0.57l0.392,2.977l-3.052,1.409l-2.549,0.707l-0.578,0.053
			L300.798,35.798z		">
<animateTransform  type="rotate" fill="remove" restart="always" calcMode="linear" additive="replace" accumulate="none" to="-360 0 0" from="0 0 0" repeatCount="indefinite" dur="16s" attributeType="XML" attributeName="transform">
				</animateTransform>
		</path>
	</g>
	<g transform="translate(176.5, 173.5)">
		<path id="gear-4_1_" d="M243.407,36.469l2.51-0.346l0.66,0.027l3.312,1.267v2.452l-3.312,1.267l-0.66,0.027l-2.51-0.346
			l-1.024,3.826l2.346,0.954l0.558,0.354l2.235,2.753l-1.226,2.124l-3.502-0.56l-0.586-0.307l-2-1.554l-2.801,2.801l1.555,1.999
			l0.306,0.586l0.56,3.502l-2.123,1.227l-2.754-2.235l-0.354-0.558l-0.955-2.347l-3.826,1.025l0.346,2.509l-0.026,0.66l-1.267,3.312
			h-2.453l-1.267-3.312l-0.026-0.66l0.346-2.509l-3.826-1.025l-0.955,2.347l-0.354,0.558l-2.754,2.235l-2.123-1.227l0.56-3.502
			l0.306-0.586l1.555-1.999l-2.801-2.801l-2,1.554l-0.586,0.307l-3.502,0.56l-1.226-2.124l2.235-2.753l0.558-0.354l2.346-0.954
			l-1.024-3.826l-2.51,0.346l-0.66-0.027l-3.312-1.267v-2.452l3.312-1.267l0.66-0.027l2.51,0.346l1.024-3.825l-2.346-0.955
			l-0.558-0.354l-2.235-2.753l1.226-2.124l3.502,0.56l0.586,0.307l2,1.554l2.801-2.801l-1.555-1.999l-0.306-0.586l-0.56-3.502
			l2.123-1.227l2.754,2.235l0.354,0.558l0.955,2.347l3.826-1.025l-0.346-2.509l0.026-0.66l1.267-3.312h2.453l1.267,3.312l0.026,0.66
			l-0.346,2.509l3.826,1.025l0.955-2.347l0.354-0.558l2.754-2.235l2.123,1.227l-0.56,3.502l-0.306,0.586l-1.555,1.999l2.801,2.801
			l2-1.554l0.586-0.307l3.502-0.56l1.226,2.124l-2.235,2.753l-0.558,0.354l-2.346,0.955L243.407,36.469z		">
<animateTransform  type="rotate" fill="remove" restart="always" calcMode="linear" additive="replace" accumulate="none" to="360 0 0" from="0 0 0" repeatCount="indefinite" dur="4s" attributeType="XML" attributeName="transform">
				</animateTransform>
		</path>
		<circle fill="#FFFFFF" stroke="#784F33" cx="227.642" cy="38.644" r="10"/>
	</g>
	<g transform="translate(-9.5, 106)">
		<path id="gear-1_1_" d="M287.142,48.543l-3.406,0.601l-1.312,5.562l0.094,2.844l0.625,2.25l-5.531,2l-0.938-2.125l-1.75-2.25
			l-4.594-3.406l-3,1.75l0.656,5.656l1.062,2.656l1.375,1.875l-4.5,3.781l-1.625-1.656l-2.438-1.5l-5.438-1.656l-2.25,2.656
			l2.562,5.094l1.906,2.125l1.938,1.312l-2.969,5.094l-2.094-1l-2.781-0.594l-5.688,0.312l-1.188,3.281l4.156,3.906l2.5,1.344
			l2.25,0.562l-1,5.812l-2.344-0.25l-2.812,0.406l-5.219,2.25v3.469l5.219,2.281l2.812,0.375l2.344-0.219l1,5.781l-2.25,0.594
			l-2.5,1.312l-4.156,3.938l1.188,3.25l5.688,0.344l2.781-0.594l2.094-1.031l2.969,5.125l-1.938,1.281l-1.906,2.125l-2.562,5.094
			l2.25,2.656l5.438-1.625l2.438-1.5l1.625-1.688l4.5,3.812l-1.375,1.875l-1.062,2.625l-0.656,5.688l3,1.719l4.594-3.406l1.75-2.219
			l0.938-2.125l5.531,2l-0.625,2.25l-0.094,2.844l1.312,5.531l3.406,0.594l3.156-4.75l0.875-2.719l0.156-2.312h5.906l0.156,2.312
			l0.875,2.719l3.156,4.75l3.406-0.594l1.312-5.531l-0.094-2.844l-0.625-2.25l5.531-2l0.938,2.125l1.75,2.219l4.594,3.406l3-1.719
			l-0.656-5.688l-1.062-2.625l-1.375-1.875l4.531-3.812l1.625,1.688l2.406,1.5l5.469,1.625l2.219-2.656l-2.562-5.094l-1.906-2.125
			l-1.906-1.281l2.938-5.125l2.094,1.031l2.781,0.594l5.688-0.344l1.188-3.25l-4.156-3.938l-2.5-1.312l-2.25-0.594l1.031-5.781
			l2.312,0.219l2.812-0.375l5.219-2.281v-3.469l-5.219-2.25l-2.812-0.406l-2.312,0.25l-1.031-5.812l2.25-0.562l2.5-1.344
			l4.156-3.906l-1.188-3.281l-5.688-0.312l-2.781,0.594l-2.094,1l-2.938-5.094l1.906-1.312l1.906-2.125l2.562-5.094l-2.219-2.656
			l-5.469,1.656l-2.406,1.5l-1.625,1.656l-4.531-3.781l1.375-1.875l1.062-2.656l0.656-5.656l-3-1.75l-4.594,3.406l-1.75,2.25
			l-0.938,2.125l-5.531-2l0.625-2.25l0.094-2.844l-1.312-5.562l-3.406-0.594l-3.156,4.781l-0.875,2.688l-0.156,2.312h-5.906
			l-0.156-2.312l-0.875-2.688l-3.156-4.781V48.543z M290.798,65.175v20.75c-4.658,1.239-8.322,4.903-9.562,9.562h-20.75
			C262.122,79.51,274.821,66.812,290.798,65.175z M297.798,65.175c15.977,1.637,28.676,14.335,30.312,30.312h-20.781
			c-1.236-4.646-4.891-8.282-9.531-9.531V65.175z M294.267,92.456c3.59,0,6.5,2.91,6.5,6.5s-2.91,6.5-6.5,6.5s-6.5-2.91-6.5-6.5
			S290.677,92.456,294.267,92.456z M260.485,102.487h20.781c1.249,4.641,4.885,8.295,9.531,9.531V132.8
			C274.821,131.162,262.122,118.464,260.485,102.487z M307.298,102.487h20.812c-1.637,15.977-14.336,28.675-30.312,30.312v-20.812
			C302.427,110.741,306.052,107.115,307.298,102.487z		">
<animateTransform  type="rotate" fill="remove" restart="always" calcMode="linear" additive="replace" accumulate="none" to="360 66.640625 60.32499885559082" from="0 66.640625 60.32499885559082" repeatCount="indefinite" dur="12s" attributeType="XML" attributeName="transform">
				</animateTransform>
		</path>
	</g>
	<g transform="translate(132, 84)">
		<path id="gear-2_1_" d="M283.483,34.146l1.402-0.113l3.74,0.613l5.199,2.175v3.644l-5.199,2.175l-3.74,0.613l-1.402-0.113
			l-0.738,5.612l1.383,0.254l3.455,1.561l4.459,3.446l-0.943,3.52l-5.585,0.756l-3.771-0.376l-1.326-0.473l-2.166,5.23l1.271,0.604
			l2.933,2.4l3.414,4.483l-1.82,3.156l-5.59-0.717l-3.547-1.34l-1.158-0.799l-3.445,4.491l1.072,0.912l2.211,3.078l2.138,5.214
			l-2.577,2.577l-5.214-2.139l-3.078-2.211l-0.911-1.071l-4.492,3.445l0.799,1.158l1.341,3.546l0.716,5.59l-3.156,1.821
			l-4.482-3.414l-2.401-2.933l-0.603-1.271l-5.231,2.166l0.474,1.326l0.375,3.771l-0.756,5.585l-3.519,0.943l-3.447-4.459
			l-1.56-3.454l-0.254-1.384l-5.612,0.739l0.112,1.401l-0.612,3.741l-2.175,5.198h-3.645l-2.175-5.198l-0.612-3.741l0.112-1.401
			l-5.612-0.739l-0.254,1.384l-1.56,3.454l-3.447,4.459l-3.519-0.943l-0.756-5.585l0.375-3.771l0.474-1.326l-5.231-2.166
			l-0.603,1.271l-2.401,2.933l-4.482,3.414l-3.156-1.821l0.716-5.59l1.341-3.546l0.799-1.158l-4.492-3.445l-0.911,1.071
			l-3.078,2.211l-5.214,2.139l-2.577-2.577l2.138-5.214l2.211-3.078l1.072-0.912l-3.445-4.491l-1.158,0.799l-3.547,1.34l-5.59,0.717
			l-1.82-3.156l3.414-4.483l2.933-2.4l1.271-0.604l-2.166-5.23l-1.326,0.473l-3.771,0.376l-5.585-0.756l-0.943-3.52l4.459-3.446
			l3.455-1.561l1.383-0.254L171.8,43.14l-1.402,0.113l-3.74-0.613l-5.199-2.175v-3.644l5.199-2.175l3.74-0.613l1.402,0.113
			l0.738-5.612l-1.383-0.254L167.7,26.72l-4.459-3.446l0.943-3.52l5.585-0.756l3.771,0.376l1.326,0.473l2.166-5.23l-1.271-0.604
			l-2.933-2.4l-3.414-4.483l1.82-3.156l5.59,0.717l3.547,1.34l1.158,0.799l3.445-4.491l-1.072-0.912l-2.211-3.078l-2.138-5.214
			l2.577-2.577l5.214,2.139l3.078,2.211l0.911,1.072l4.492-3.446l-0.8-1.158l-1.34-3.546l-0.716-5.59l3.156-1.821l4.482,3.414
			l2.401,2.933l0.603,1.271l5.231-2.166l-0.474-1.326l-0.375-3.771l0.756-5.585l3.519-0.943l3.447,4.459l1.56,3.454l0.254,1.384
			l5.612-0.739l-0.112-1.401l0.612-3.741l2.175-5.198h3.645l2.175,5.198l0.612,3.741l-0.112,1.401l5.612,0.739l0.254-1.384
			l1.56-3.454l3.447-4.459l3.519,0.943l0.756,5.585l-0.375,3.771l-0.474,1.326l5.231,2.166l0.603-1.271l2.401-2.933l4.482-3.414
			l3.156,1.821l-0.716,5.59l-1.341,3.546l-0.799,1.158l4.492,3.446l0.911-1.072l3.078-2.211l5.214-2.139l2.577,2.577l-2.138,5.214
			l-2.211,3.078l-1.072,0.912l3.445,4.491l1.158-0.799l3.547-1.34l5.59-0.717l1.82,3.156l-3.414,4.483l-2.933,2.4l-1.271,0.604
			l2.166,5.23l1.326-0.473l3.771-0.376l5.585,0.756l0.943,3.52l-4.459,3.446l-3.455,1.561l-1.383,0.254L283.483,34.146z		">
<animateTransform  type="rotate" fill="remove" restart="always" calcMode="linear" additive="replace" accumulate="none" to="-360 -0.00000762939453125 0" from="0 -0.00000762939453125 0" repeatCount="indefinite" dur="16s" attributeType="XML" attributeName="transform">
				</animateTransform>
		</path>
		<circle fill="#FFFFFF" stroke="#784F33" cx="227.642" cy="38.644" r="5"/>
	</g>
</g>
<g>
	<radialGradient id="SVGID_1_" cx="260.5068" cy="63.3779" r="416.8205" gradientUnits="userSpaceOnUse">
		<stop  offset="0" style="stop-color:#FFFFFF"/>
		<stop  offset="0.8621" style="stop-color:#2C2829"/>
		<stop  offset="1" style="stop-color:#000000"/>
	</radialGradient>
	<path fill="url(#SVGID_1_)" stroke="#4D4D4D" stroke-miterlimit="10" d="M53.758,281.359l-31.562-176.75h25.25l12.625,82.062
		l6.411,50.5l6.214-50.5l12.625-82.062h25.25l12.625,82.062l6.214,50.5l6.411-50.5l12.625-82.062h25.25l-31.562,176.75h-25.25
		l-12.625-82.062l-6.312-50.5l-6.312,50.5l-12.625,82.062H53.758z"/>
	<radialGradient id="SVGID_2_" cx="260.5068" cy="63.3779" r="416.8206" gradientUnits="userSpaceOnUse">
		<stop  offset="0" style="stop-color:#FFFFFF"/>
		<stop  offset="0.8621" style="stop-color:#2C2829"/>
		<stop  offset="1" style="stop-color:#000000"/>
	</radialGradient>
	<path fill="url(#SVGID_2_)" stroke="#4D4D4D" stroke-miterlimit="10" d="M232.974,283.135c-8.877,0-16.488-1.348-22.834-4.043
		s-11.392-6.641-15.14-11.836c-3.748-5.193-6.478-11.295-8.187-18.297c-1.71-7.004-2.564-15.141-2.564-24.412v-64.111
		c0-9.271,0.854-17.359,2.564-24.264c1.709-6.904,4.438-12.902,8.187-18c3.748-5.096,8.794-8.926,15.14-11.49
		s13.957-3.848,22.834-3.848c17.227,0,29.655,4.932,37.284,14.795c7.627,9.863,11.441,24.133,11.441,42.807v64.111
		c0,9.141-0.873,17.211-2.613,24.215c-1.744,7.002-4.488,13.117-8.236,18.346c-3.748,5.227-8.795,9.207-15.142,11.934
		C249.362,281.77,241.784,283.135,232.974,283.135z M214.579,254.434c3.386,5.326,9.518,7.988,18.395,7.988
		s15.008-2.662,18.395-7.988s5.08-13.184,5.08-23.574v-76.736c0-10.258-1.676-17.916-5.03-22.98
		c-3.354-5.062-9.503-7.596-18.444-7.596c-8.943,0-15.091,2.533-18.444,7.596c-3.354,5.064-5.03,12.723-5.03,22.98v76.736
		C209.499,241.25,211.191,249.107,214.579,254.434z"/>
	<radialGradient id="SVGID_3_" cx="260.5068" cy="63.3779" r="416.8203" gradientUnits="userSpaceOnUse">
		<stop  offset="0" style="stop-color:#FFFFFF"/>
		<stop  offset="0.8621" style="stop-color:#2C2829"/>
		<stop  offset="1" style="stop-color:#000000"/>
	</radialGradient>
	<path fill="url(#SVGID_3_)" stroke="#4D4D4D" stroke-miterlimit="10" d="M303.792,281.359v-176.75h31.562
		c18.805,0,32.975,3.65,42.51,10.949c9.533,7.299,14.303,19.43,14.303,36.395c0,10.521-1.875,19.332-5.623,26.434
		s-9.238,11.969-16.471,14.598l28.406,88.375h-25.053l-25.447-82.062h-18.938v82.062H303.792z M329.042,180.359h6.312
		c10.52,0,18.41-2.219,23.672-6.656c5.26-4.439,7.891-11.689,7.891-21.75s-2.631-17.309-7.891-21.748
		c-5.262-4.438-13.152-6.658-23.672-6.658h-6.312V180.359z"/>
	<radialGradient id="SVGID_4_" cx="260.5068" cy="63.3779" r="416.82" gradientUnits="userSpaceOnUse">
		<stop  offset="0" style="stop-color:#FFFFFF"/>
		<stop  offset="0.8621" style="stop-color:#2C2829"/>
		<stop  offset="1" style="stop-color:#000000"/>
	</radialGradient>
	<path fill="url(#SVGID_4_)" stroke="#4D4D4D" stroke-miterlimit="10" d="M413.077,281.359v-176.75h25.25v75.75l37.875-75.75h31.562
		l-37.975,69.438l44.287,107.312h-31.562l-31.562-82.062l-12.625,25.25v56.812H413.077z"/>
</g>
</svg>
